<ttFont>
          <CharString index="0">
            -101 callsubr
            -97 callsubr
            return
          </CharString>
          <CharString index="1">
            rmoveto
            21 -8 42 94 -23 10 -154 84 rcurveline
            3 -5 -3 1 -3 hhcurveto
            -3 -3 -1 -3 -5 hvcurveto
            -154 -84 -23 -10 42 -94 22 8 rlinecurve
            124 73 rlineto
            return
          </CharString>
          <CharString index="2">
            rmoveto
            -9 139 3 7 vvcurveto
            143 vlineto
            5 callsubr
            return
          </CharString>
          <CharString index="3">
            -93 callsubr
            -71 callsubr
            return
          </CharString>
          <CharString index="4">
            -57 callsubr
            56 callsubr
            hintmask 10111100
            435 168 -107 callsubr
            hintmask 01111010
            -28 callsubr
            hintmask 01111100
            -50 callsubr
            hintmask 10111100
            -36 callsubr
            return
          </CharString>
          <CharString index="5">
            rmoveto
            -244 142 -115 171 181 142 103 256 -100 callsubr
          </CharString>
          <CharString index="6">
            rmoveto
            158 vlineto
            116 -47 68 -128 -56 -64 -6 -19 -43 vhcurveto
            -13 -7 -4 -11 -15 vvcurveto
            -19 7 -23 7 -17 vhcurveto
            4 -11 5 -10 5 -9 35 8 rcurveline
            4 21 29 4 29 hhcurveto
            return
          </CharString>
          <CharString index="7">
            251 -136 109 -184 -27 callsubr
            vhcurveto
            205 hmoveto
            112 53 56 60 60 53 -53 -115 -108 -49 -56 -64 -65 -48 56 108 vhcurveto
            endchar
          </CharString>
          <CharString index="8">
            rmoveto
            -78 callsubr
            -94 callsubr
          </CharString>
          <CharString index="9">
            rmoveto
            -165 91 -95 140 139 91 95 165 165 -91 95 -139 3 callsubr
            vhcurveto
            -16 callsubr
            26 31 -18 -74 -74 -31 -18 -26 -27 -29 18 74 vhcurveto
            return
          </CharString>
          <CharString index="10">
            33 9 -6 -35 hvcurveto
            -10 -55 vlineto
            -133 -62 -55 -108 -92 73 -83 100 69 43 19 39 31 hvcurveto
            5 -11 8 -10 10 -8 rrcurveto
            -15 17 27 -14 43 hhcurveto
            return
          </CharString>
          <CharString index="11">
            -85 callsubr
            -295 vlineto
            -152 62 -57 127 47 49 23 31 35 vhcurveto
            1 1 rlineto
            -19 11 26 -36 62 hhcurveto
            return
          </CharString>
          <CharString index="12">
            rmoveto
            21 8 -44 108 -24 -11 -162 -89 rcurveline
            -23 -10 39 -89 22 8 rrcurveto
            return
          </CharString>
          <CharString index="13">
            -25 callsubr
            -136 -98 -106 -156 -173 112 -85 121 76 47 13 24 41 hvcurveto
            -125 289 -64 callsubr
          </CharString>
          <CharString index="14">
            rmoveto
            -9 139 3 7 vvcurveto
            143 vlineto
            return
          </CharString>
          <CharString index="15">
            -59 callsubr
            -178 -687 -35 callsubr
            30 134 rlineto
            159 hlineto
            32 -139 rlineto
            return
          </CharString>
          <CharString index="16">
            hstem
            30 callsubr
            173 vstem
            26 250 -98 callsubr
            return
          </CharString>
          <CharString index="17">
            rmoveto
            22 -8 39 89 -23 10 -162 89 rcurveline
            -24 11 -44 -108 21 -8 rrcurveto
            return
          </CharString>
          <CharString index="18">
            37 41 -43 3 72 hvcurveto
            40 48 36 34 18 hvcurveto
            11 20 -53 68 -15 -10 -16 -19 -22 -19 -31 -1 rrcurveto
            return
          </CharString>
          <CharString index="19">
            -51 callsubr
            101 185 hlineto
            26 4 177 -30 hhcurveto
            -358 hlineto
            -15 -8 -9 -17 hvcurveto
            -643 vlineto
            -21 13 -10 25 vhcurveto
            endchar
          </CharString>
          <CharString index="20">
            rmoveto
            -69 hlineto
            -35 0 -172 35 hhcurveto
            337 hlineto
            36 0 172 -36 hhcurveto
            -70 356 67 hlineto
            35 0 172 -35 hhcurveto
            -336 hlineto
            -36 0 -172 36 hhcurveto
            71 hlineto
            return
          </CharString>
          <CharString index="21">
            rmoveto
            -21 8 -42 -94 23 -10 154 -84 rcurveline
            -3 5 3 -1 3 hhcurveto
            3 3 1 3 5 hvcurveto
            154 84 23 10 -42 94 -22 -8 rlinecurve
            -124 -73 rlineto
            endchar
          </CharString>
          <CharString index="22">
            rmoveto
            13 -170 0 -13 vvcurveto
            -321 vlineto
            -12 -17 -10 -9 -27 hhcurveto
            -25 -7 19 31 hvcurveto
            292 vlineto
            16 -172 -3 -13 vvcurveto
            return
          </CharString>
          <CharString index="23">
            19 callsubr
            -88 callsubr
          </CharString>
          <CharString index="24">
            -2 callsubr
            -91 callsubr
            return
          </CharString>
          <CharString index="25">
            -96 callsubr
            hintmask 01110000
            -3 callsubr
            return
          </CharString>
          <CharString index="26">
            172 -87 callsubr
            return
          </CharString>
          <CharString index="27">
            -38 callsubr
            -379 279 -37 callsubr
            return
          </CharString>
          <CharString index="28">
            -48 -26 40 -3 -62 hvcurveto
            -33 -1 -50 -21 -41 -41 -14 -14 38 -64 25 -6 rrcurveto
            return
          </CharString>
          <CharString index="29">
            15 7 4 13 15 vvcurveto
            38 -32 53 -1 -1 vhcurveto
            -24 -47 -37 -8 -49 hhcurveto
            -39 -26 10 43 hvcurveto
            69 hlineto
            return
          </CharString>
          <CharString index="30">
            -10 187 355 177 hstem
            46 215 12 226 vstem
            76 244 rmoveto
            -22 -17 -25 -62 -53 vvcurveto
            -94 120 -28 109 vhcurveto
            174 3 67 110 132 vvcurveto
            116 -88 51 -68 33 vhcurveto
            -37 19 -45 14 28 vvcurveto
            19 8 17 39 47 34 -14 -19 37 vhcurveto
            8 5 48 93 -3 56 rrcurveto
            36 -3 -106 20 -87 hhcurveto
            -141 -99 -90 -132 3 hvcurveto
            3 -146 96 -45 68 -31 rrcurveto
            49 -23 11 -12 -20 vvcurveto
            -19 -12 -14 -29 -35 -38 16 17 -31 vhcurveto
            -17 10 -18 11 -17 13 rrcurveto
            return
          </CharString>
          <CharString index="31">
            525 -106 callsubr
            return
          </CharString>
          <CharString index="32">
            -95 callsubr
            endchar
          </CharString>
          <CharString index="33">
            551 -105 callsubr
            return
          </CharString>
          <CharString index="34">
            751 -105 callsubr
            return
          </CharString>
          <CharString index="35">
            -107 -10 141 248 131 hstemhm
            47 193 -16 201 hintmask 11010000
            66 180 rmoveto
            -18 -13 -23 -48 -39 vvcurveto
            -60 103 -30 84 150 63 79 100 87 -81 39 -52 22 vhcurveto
            hintmask 11100000
            -43 19 -9 9 15 vvcurveto
            13 9 6 18 23 43 -9 -15 27 vhcurveto
            8 3 43 61 33 vvcurveto
            36 -89 22 -81 -109 -85 -49 -103 -104 74 -42 51 -21 vhcurveto
            hintmask 11010000
            24 -11 28 -13 -15 vvcurveto
            -11 -9 -10 -21 -27 -32 12 12 -25 vhcurveto
            -15 7 -14 9 -15 9 rrcurveto
            return
          </CharString>
          <CharString index="36">
            7 -139 1 -12 vvcurveto
            return
          </CharString>
          <CharString index="37">
            hstem
            117 198 vstem
            117 -81 callsubr
            return
          </CharString>
          <CharString index="38">
            rmoveto
            -20 -45 169 -11 20 45 58 136 rcurveline
            2 85 rlineto
            26 -155 2 -9 -23 vhcurveto
            -4 -91 rlineto
            return
          </CharString>
          <CharString index="39">
            -90 callsubr
            endchar
          </CharString>
          <CharString index="40">
            -9 189 2 8 vvcurveto
            183 vlineto
            7 -189 1 -12 vvcurveto
            return
          </CharString>
          <CharString index="41">
            -65 callsubr
            endchar
          </CharString>
          <CharString index="42">
            17 callsubr
            470 15 callsubr
            -444 16 callsubr
            441 18 callsubr
            -452 2 callsubr
            return
          </CharString>
          <CharString index="43">
            rmoveto
            -23 -13 -11 -20 vhcurveto
            -54 31 hlineto
            31 23 14 23 27 14 -14 -28 vhcurveto
            endchar
          </CharString>
          <CharString index="44">
            rmoveto
            -67 callsubr
            return
          </CharString>
          <CharString index="45">
            -6 callsubr
            468 494 -82 callsubr
            return
          </CharString>
          <CharString index="46">
            -15 callsubr
            hstemhm
            hintmask 01100000
            -92 callsubr
            hintmask 10100000
            -80 callsubr
            return
          </CharString>
          <CharString index="47">
            rmoveto
            -51 39 -39 51 51 39 39 51 51 -39 39 -51 -51 -39 -39 -51 vhcurveto
            31 1 rmoveto
            33 27 27 33 33 27 -27 -33 -33 -27 -27 -33 -33 -27 27 33 vhcurveto
            return
          </CharString>
          <CharString index="48">
            466 691 rmoveto
            5 -83 3 -72 -61 -58 -3 -5 vhcurveto
            return
          </CharString>
          <CharString index="49">
            -105 callsubr
            endchar
          </CharString>
          <CharString index="50">
            -40 -10 144 -144 178 58 102 51 131 return
          </CharString>
          <CharString index="51">
            rmoveto
            28 -28 83 85 -29 25 -134 144 rcurveline
            132 142 30 27 -85 82 -27 -27 rlinecurve
            -168 -197 -15 -15 -4 -16 15 -15 rlinecurve
            return
          </CharString>
          <CharString index="52">
            rmoveto
            15 15 -4 16 -15 15 -168 197 rcurveline
            -29 27 -82 -82 29 -27 132 -142 rcurveline
            -134 -144 -29 -26 82 -85 29 29 rlinecurve
            return
          </CharString>
          <CharString index="53">
            -39 0 -116 39 hhcurveto
            return
          </CharString>
          <CharString index="54">
            84 464 rmoveto
            -149 120 -120 149 149 120 120 149 149 -120 120 -149 -149 -120 -120 -149 vhcurveto
            58 3 rmoveto
            116 97 97 117 118 95 -97 -116 -117 -95 -97 -118 -122 -92 97 117 vhcurveto
            return
          </CharString>
          <CharString index="55">
            rmoveto
            -10 177 1 10 vvcurveto
            475 vlineto
            7 -177 -1 -7 vvcurveto
            endchar
          </CharString>
          <CharString index="56">
            -184 100 127 hlineto
            26 2 148 -26 hhcurveto
            -129 return
          </CharString>
          <CharString index="57">
            -281 11 rmoveto
            28 15 19 33 vhcurveto
            28 -77 hlineto
            return
          </CharString>
          <CharString index="58">
            39 0 116 -39 hhcurveto
            return
          </CharString>
          <CharString index="59">
            -136 69 -56 86 81 69 61 131 vhcurveto
            -105 1 -34 callsubr
            return
          </CharString>
          <CharString index="60">
            12 callsubr
            -70 callsubr
            return
          </CharString>
          <CharString index="61">
            805 -95 callsubr
            return
          </CharString>
          <CharString index="62">
            -26 callsubr
            hintmask 10000000
            -89 callsubr
            hintmask 01000000
            -79 callsubr
            endchar
          </CharString>
          <CharString index="63">
            rmoveto
            19 10 24 32 11 1 6 -3 27 hvcurveto
            -101 -4 rlineto
            39 34 51 59 58 vvcurveto
            61 -33 35 -75 -59 -57 -19 -16 -8 vhcurveto
            -13 -34 39 -52 0 vvcurveto
            7 11 22 11 19 hhcurveto
            25 7 -10 -25 -37 -57 -42 -51 -40 hvcurveto
            -5 -5 3 -81 26 hhcurveto
            return
          </CharString>
          <CharString index="64">
            165 vstem
            55 -67 -69 callsubr
            return
          </CharString>
          <CharString index="65">
            rmoveto
            8 -6 4 -12 vhcurveto
            -157 hlineto
            -13 -2 -32 -14 -13 -1 -47 16 hvcurveto
            52 1 rlineto
            -227 vlineto
            -12 123 0 12 vvcurveto
            return
          </CharString>
          <CharString index="66">
            -103 0 162 181 157 hstem
            27 123 rmoveto
            -12 -9 42 -111 22 hhcurveto
            320 hlineto
            25 5 172 -4 -25 hvcurveto
            -173 -12 194 244 rlineto
            8 5 -50 92 -9 hhcurveto
            -319 hlineto
            -21 -3 -160 12 hhcurveto
            175 6 rlineto
            return
          </CharString>
          <CharString index="67">
            rmoveto
            -13 172 -2 11 vvcurveto
            321 vlineto
            5 4 6 3 6 3 rrcurveto
            5 11 11 6 12 hhcurveto
            23 12 -17 -33 hvcurveto
            -289 vlineto
            -14 171 -2 16 vvcurveto
            300 vlineto
            145 -53 56 -107 -67 -52 -23 -31 -36 vhcurveto
            18 -10 -38 36 -64 hhcurveto
            return
          </CharString>
          <CharString index="68">
            -26 callsubr
            hintmask 11101100
            -89 callsubr
            hintmask 11011100
            -79 callsubr
            return
          </CharString>
          <CharString index="69">
            -21 5 42 -7 47 hhcurveto
            57 62 10 5 hvcurveto
            return
          </CharString>
          <CharString index="70">
            rmoveto
            54 207 rlineto
            6 hlineto
            45 -207 rlineto
            return
          </CharString>
          <CharString index="71">
            -10 -10 -11 -5 -13 hhcurveto
            -23 -19 14 31 hvcurveto
            return
          </CharString>
          <CharString index="72">
            rlineto
            -5 43 -9 51 44 47 7 24 5 vhcurveto
            return
          </CharString>
          <CharString index="73">
            rmoveto
            -43 -20 -20 -27 8 callsubr
            27 20 -20 -45 vhcurveto
            return
          </CharString>
          <CharString index="74">
            -98 callsubr
            endchar
          </CharString>
          <CharString index="75">
            rmoveto
            -20 61 -16 57 83 39 43 56 47 -25 20 -35 15 vhcurveto
            31 19 20 21 39 vvcurveto
            43 -32 35 -71 -58 -61 -15 -27 -13 5 -17 5 -13 vhcurveto
            3 -7 3 -8 5 -8 rrcurveto
            7 17 17 3 17 hhcurveto
            return
          </CharString>
          <CharString index="76">
            615 8 rmoveto
            -16 114 4 13 vvcurveto
            68 31 vlineto
            6 2 73 -8 hhcurveto
            -31 hlineto
            -1 194 rlineto
            3 -139 0 -4 -8 vhcurveto
            -106 -188 -10 -21 27 -45 13 -10 rlinecurve
            106 hlineto
            -38 74 rmoveto
            return
          </CharString>
          <CharString index="77">
            -24 callsubr
            endchar
          </CharString>
          <CharString index="78">
            19 16 -5 -15 -17 -11 -10 -21 -1 hvcurveto
            -18 -1 rlineto
            -7 -2 -6 -5 -13 7 -21 8 hvcurveto
            10 hlineto
            32 11 -6 -20 -19 -17 -12 -24 -19 -22 6 11 -17 hvcurveto
            -1 1 -25 -41 -30 vvcurveto
            return
          </CharString>
          <CharString index="79">
            43 22 60 49 37 -13 32 -23 hvcurveto
            return
          </CharString>
          <CharString index="80">
            -170 -146 -109 -251 return
          </CharString>
          <CharString index="81">
            rmoveto
            33 24 16 16 32 1 rrcurveto
            return
          </CharString>
          <CharString index="82">
            131 55 61 101 91 -70 84 -136 return
          </CharString>
          <CharString index="83">
            hlineto
            -54 callsubr
            return
          </CharString>
          <CharString index="84">
            26 callsubr
            -48 callsubr
            return
          </CharString>
          <CharString index="85">
            -12 callsubr
            9 17 -200 -5 -4 -8 rlinecurve
            -67 -231 -68 230 41 callsubr
            return
          </CharString>
          <CharString index="86">
            34 callsubr
            -449 rcurveline
            -226 vlineto
            46 callsubr
            232 vlineto
            208 445 33 callsubr
            -218 rlineto
            return
          </CharString>
          <CharString index="87">
            530 -90 callsubr
            return
          </CharString>
          <CharString index="88">
            rmoveto
            -21 -35 85 -46 21 32 393 640 rcurveline
            22 33 -85 47 -22 -32 rrcurveto
            endchar
          </CharString>
          <CharString index="89">
            21 hlineto
            40 11 12 27 19 18 -5 -9 19 vhcurveto
            1 1 24 50 -1 45 rrcurveto
            28 -34 26 -71 -93 -70 -37 -150 vhcurveto
            35 callsubr
            return
          </CharString>
          <CharString index="90">
            6 0 199 319 182 hstem
            41 155 rmoveto
            -20 -16 59 -135 10 hhcurveto
            389 hlineto
            49 6 203 -4 -52 hvcurveto
            -183 hlineto
            234 355 rlineto
            return
          </CharString>
          <CharString index="91">
            175 1 rmoveto
            74 29 18 27 return
          </CharString>
          <CharString index="92">
            98 9 -21 23 -21 165 127 return
          </CharString>
          <CharString index="93">
            rmoveto
            -49 callsubr
            return
          </CharString>
          <CharString index="94">
            41 -54 113 -21 -18 vhcurveto
            -18 -18 -50 -7 -24 hhcurveto
            -69 -60 47 120 117 56 49 73 23 38 -11 -10 12 hvcurveto
            30 -22 50 116 42 vvcurveto
            return
          </CharString>
          <CharString index="95">
            180 40 rmoveto
            -87 -210 -4 -11 199 -5 3 10 rlinecurve
            235 669 return
          </CharString>
          <CharString index="96">
            209 248 rmoveto
            79 30 23 28 23 20 -20 -19 19 vhcurveto
            53 -59 52 173 -29 34 rrcurveto
            31 -25 -43 20 -84 hhcurveto
            -132 -95 -106 -157 return
          </CharString>
          <CharString index="97">
            -9 callsubr
            23 callsubr
            return
          </CharString>
          <CharString index="98">
            -71 -10 130 53 109 76 152 return
          </CharString>
          <CharString index="99">
            -14 callsubr
            -395 -30 callsubr
          </CharString>
          <CharString index="100">
            -36 callsubr
            endchar
          </CharString>
          <CharString index="101">
            -4 callsubr
            86 170 hintmask 10110000
            return
          </CharString>
          <CharString index="102">
            rmoveto
            -39 173 38 callsubr
            -60 211 rlineto
            -11 38 -102 2 -40 vvcurveto
            return
          </CharString>
          <CharString index="103">
            7 callsubr
            hstemhm
            40 172 return
          </CharString>
          <CharString index="104">
            74 15 176 -55 hhcurveto
            -26 hlineto
            return
          </CharString>
          <CharString index="105">
            -44 -10 169 184 167 return
          </CharString>
          <CharString index="106">
            29 callsubr
            0 callsubr
            return
          </CharString>
          <CharString index="107">
            hstem
            30 205 226 205 vstem
            return
          </CharString>
          <CharString index="108">
            0 174 100 148 101 177 return
          </CharString>
          <CharString index="109">
            vlineto
            -156 126 -90 155 vhcurveto
            return
          </CharString>
          <CharString index="110">
            -140 -91 -95 -165 return
          </CharString>
          <CharString index="111">
            vlineto
            225 68 146 118 hvcurveto
            -293 64 rmoveto
            21 hlineto
            57 18 -21 -53 -56 -39 -28 -44 hvcurveto
            -13 hlineto
            endchar
          </CharString>
          <CharString index="112">
            -71 callsubr
            230 -140 -104 callsubr
            return
          </CharString>
          <CharString index="113">
            vstem
            40 526 rmoveto
            -111 58 -62 95 93 59 62 111 111 -59 62 -93 -95 -58 -62 -111 vhcurveto
            return
          </CharString>
          <CharString index="114">
            -13 -10 162 -162 176 return
          </CharString>
          <CharString index="115">
            -27 -20 20 43 45 20 20 27 return
          </CharString>
          <CharString index="116">
            39 -116 0 -39 vvcurveto
            return
          </CharString>
          <CharString index="117">
            71 11 -21 13 callsubr
            311 -10 rmoveto
            17 callsubr
            return
          </CharString>
          <CharString index="118">
            -8 130 128 127 -51 130 128 127 hstemhm
            35 106 94 105 108 106 94 return
          </CharString>
          <CharString index="119">
            -125 0 172 356 172 return
          </CharString>
          <CharString index="120">
            hstem
            30 217 130 217 vstem
            return
          </CharString>
          <CharString index="121">
            139 91 139 return
          </CharString>
          <CharString index="122">
            vlineto
            23 -217 6 -29 vvcurveto
            return
          </CharString>
          <CharString index="123">
            vlineto
            -61 -130 6 55 vvcurveto
            return
          </CharString>
          <CharString index="124">
            189 94 101 130 hvcurveto
            return
          </CharString>
          <CharString index="125">
            vlineto
            25 -217 3 -28 vvcurveto
            return
          </CharString>
          <CharString index="126">
            30 7 174 -37 hhcurveto
            return
          </CharString>
          <CharString index="127">
            -39 116 38 callsubr
            return
          </CharString>
          <CharString index="128">
            171 -171 241 return
          </CharString>
          <CharString index="129">
            605 -95 callsubr
            return
          </CharString>
          <CharString index="130">
            hstem
            26 185 87 168 vstem
            return
          </CharString>
          <CharString index="131">
            rmoveto
            -24 -31 94 -69 24 32 475 636 rcurveline
            24 32 -94 68 -24 -32 rrcurveto
            return
          </CharString>
          <CharString index="132">
            rmoveto
            39 -173 0 -39 vvcurveto
            -211 vlineto
            return
          </CharString>
          <CharString index="133">
            133 -69 60 -83 -88 -65 -60 -133 return
          </CharString>
          <CharString index="134">
            116 hstem
            return
          </CharString>
          <CharString index="135">
            hlineto
            203 111 116 252 235 -118 97 -206 hvcurveto
            return
          </CharString>
          <CharString index="136">
            -10 195 332 192 return
          </CharString>
          <CharString index="137">
            26 175 113 return
          </CharString>
          <CharString index="138">
            109 -69 106 hstemhm
            return
          </CharString>
          <CharString index="139">
            25 callsubr
            -40 102 2 11 38 vhcurveto
            return
          </CharString>
          <CharString index="140">
            5 10 -218 24 -20 -55 rlinecurve
            -84 return
          </CharString>
          <CharString index="141">
            -21 57 -238 -27 7 -11 215 return
          </CharString>
          <CharString index="142">
            -22 -49 vlineto
            -19 -2 -133 21 hhcurveto
            return
          </CharString>
          <CharString index="143">
            190 -14 callsubr
            return
          </CharString>
          <CharString index="144">
            -69 1 callsubr
            58 callsubr
            return
          </CharString>
          <CharString index="145">
            0 39 vvcurveto
            return
          </CharString>
          <CharString index="146">
            367 rmoveto
            -355 vlineto
            -16 167 0 16 vvcurveto
            354 return
          </CharString>
          <CharString index="147">
            39 3 116 -40 hhcurveto
            -114 return
          </CharString>
          <CharString index="148">
            -4 15 -192 -3 11 -15 rlinecurve
            return
          </CharString>
          <CharString index="149">
            366 134 73 136 hstemhm
            return
          </CharString>
          <CharString index="150">
            334 176 -162 162 return
          </CharString>
          <CharString index="151">
            -39 -3 -116 40 hhcurveto
            115 return
          </CharString>
          <CharString index="152">
            -10 183 1 10 vvcurveto
            return
          </CharString>
          <CharString index="153">
            -39 219 3 36 vvcurveto
            return
          </CharString>
          <CharString index="154">
            -39 113 38 callsubr
            return
          </CharString>
          <CharString index="155">
            190 27 callsubr
            return
          </CharString>
          <CharString index="156">
            -15 -25 -28 -4 -27 hhcurveto
            -43 -31 26 72 hvcurveto
            endchar
          </CharString>
          <CharString index="157">
            48 -93 27 -91 -168 -138 -130 -232 return
          </CharString>
          <CharString index="158">
            551 -93 callsubr
            return
          </CharString>
          <CharString index="159">
            510 rmoveto
            -31 -14 -5 -3 -16 hvcurveto
            194 vlineto
            return
          </CharString>
          <CharString index="160">
            -28 -5 -4 -28 vhcurveto
            -33 hlineto
            return
          </CharString>
          <CharString index="161">
            hstemhm
            14 174 return
          </CharString>
          <CharString index="162">
            -172 -116 116 682 27 callsubr
            return
          </CharString>
          <CharString index="163">
            54 callsubr
            76 21 callsubr
            return
          </CharString>
          <CharString index="164">
            149 -63 92 -147 hvcurveto
            28 -259 rmoveto
            return
          </CharString>
          <CharString index="165">
            hstem
            45 196 vstem
            return
          </CharString>
          <CharString index="166">
            hlineto
            -45 1 -182 36 hhcurveto
            199 hlineto
            return
          </CharString>
          <CharString index="167">
            553 -26 callsubr
            return
          </CharString>
          <CharString index="168">
            27 callsubr
            237 66 callsubr
            353 return
          </CharString>
          <CharString index="169">
            -3 callsubr
            endchar
          </CharString>
          <CharString index="170">
            rcurveline
            19 35 -100 58 -19 -34 rrcurveto
            endchar
          </CharString>
          <CharString index="171">
            -73 -10 -176 55 hhcurveto
            26 hlineto
            endchar
          </CharString>
          <CharString index="172">
            31 120 29 return
          </CharString>
          <CharString index="173">
            116 vstem
            return
          </CharString>
          <CharString index="174">
            7 rmoveto
            -12 182 2 11 vvcurveto
            return
          </CharString>
          <CharString index="175">
            hlineto
            3 -39 -6 -119 40 hhcurveto
            return
          </CharString>
          <CharString index="176">
            170 158 174 hstem
            46 return
          </CharString>
        <CharString name=".notdef">
          -358 endchar
        </CharString>
        <CharString name=".null">
          -557 endchar
        </CharString>
        <CharString name="A">
          98 19 -21 23 -21 155 127 417 -20 hstemhm
          hintmask 01110000
          -59 callsubr
          -177 -677 -35 callsubr
          29 124 rlineto
          159 hlineto
          33 -129 rlineto
          hintmask 10110000
          -38 callsubr
          -380 269 -37 callsubr
          endchar
        </CharString>
        <CharString name="AE">
          360 0 174 -18 129 -11 148 99 179 hstemhm
          463 183 hintmask 10111000
          830 hmoveto
          19 callsubr
          -51 callsubr
          99 185 hlineto
          26 4 179 -30 hhcurveto
          -471 hlineto
          -326 -696 -7 -10 187 -24 24 52 rlinecurve
          hintmask 01011000
          64 134 rlineto
          159 -124 hlineto
          hintmask 10111000
          -23 12 -9 19 vhcurveto
          hintmask 01011000
          -134 285 rmoveto
          99 239 rlineto
          6 -239 hlineto
          endchar
        </CharString>
        <CharString name="Aacute">
          -61 callsubr
          68 523 -75 callsubr
        </CharString>
        <CharString name="Acircumflex">
          -15 callsubr
          627 -20 hstemhm
          hintmask 01110000
          -92 callsubr
          hintmask 10110000
          -80 callsubr
          88 443 -106 callsubr
          endchar
        </CharString>
        <CharString name="Adieresis">
          -15 callsubr
          hstemhm
          143 14 callsubr
          hintmask 01111000
          -92 callsubr
          hintmask 10111000
          -80 callsubr
          -221 469 -58 callsubr
        </CharString>
        <CharString name="Agrave">
          -61 callsubr
          29 448 -68 callsubr
        </CharString>
        <CharString name="Aring">
          -15 callsubr
          443 65 callsubr
          hstemhm
          235 65 callsubr
          hintmask 01111110
          -92 callsubr
          hintmask 10111110
          -80 callsubr
          -129 533 -60 callsubr
          endchar
        </CharString>
        <CharString name="Atilde">
          -15 callsubr
          472 31 callsubr
          hintmask 01110000
          -92 callsubr
          hintmask 10101000
          -80 callsubr
          -179 471 -26 callsubr
          hintmask 01110000
          -89 callsubr
          hintmask 01101000
          -79 callsubr
          endchar
        </CharString>
        <CharString name="B">
          37 0 159 130 118 131 162 hstemhm
          61 192 101 187 -187 212 hintmask 11111000
          541 519 rmoveto
          119 -79 62 -155 vhcurveto
          -228 hlineto
          -15 -3 -3 -15 hvcurveto
          -640 vlineto
          -25 16 -17 23 vhcurveto
          236 hlineto
          hintmask 11110100
          149 81 65 116 107 -59 52 -56 21 hvcurveto
          hintmask 11111000
          67 40 23 55 63 vvcurveto
          -288 19 rmoveto
          21 hlineto
          57 23 -20 -47 -47 -44 -17 -52 hvcurveto
          -5 hlineto
          -118 vmoveto
          21 hlineto
          57 23 -17 -44 -51 -28 -18 -55 hvcurveto
          -18 hlineto
          endchar
        </CharString>
        <CharString name="C">
          4 -10 196 333 190 hstem
          30 208 vstem
          520 634 rmoveto
          50 callsubr
          -236 134 -121 168 104 98 31 54 -13 callsubr
          endchar
        </CharString>
        <CharString name="CR">
          -358 endchar
        </CharString>
        <CharString name="Ccedilla">
          -11 -179 103 67 195 333 190 hstem
          15 208 52 244 vstem
          275 -44 rmoveto
          53 callsubr
          -28 -12 -80 -8 29 hvcurveto
          27 -13 33 -5 39 3 40 3 25 14 9 27 9 23 -9 42 -26 61 rrcurveto
          93 5 81 30 49 vvcurveto
          -13 callsubr
          50 callsubr
          -217 112 -118 148 -19 vhcurveto
          endchar
        </CharString>
        <CharString name="D">
          59 0 179 331 190 hstem
          50 192 133 211 vstem
          50 46 rmoveto
          -32 19 -14 32 vhcurveto
          171 28 callsubr
          -167 hlineto
          -27 -18 -21 -33 hvcurveto
          192 -136 rmoveto
          10 hlineto
          79 44 -23 -119 -151 -44 -38 -68 -20 -1 5 27 hvcurveto
          endchar
        </CharString>
        <CharString name="E">
          -64 1 callsubr
          hstem
          50 196 vstem
          430 hmoveto
          -84 callsubr
        </CharString>
        <CharString name="Eacute">
          37 callsubr
          349 -46 callsubr
          247 -730 rmoveto
          -84 callsubr
        </CharString>
        <CharString name="Ecircumflex">
          -69 1 callsubr
          209 -20 58 callsubr
          369 725 -106 callsubr
          181 -798 rmoveto
          -84 callsubr
        </CharString>
        <CharString name="Edieresis">
          -69 1 callsubr
          hstemhm
          45 196 -182 14 callsubr
          hintmask 11101100
          59 -73 callsubr
          136 -891 rmoveto
          19 callsubr
          hintmask 11110100
          -88 callsubr
        </CharString>
        <CharString name="Egrave">
          37 callsubr
          310 730 -90 callsubr
          286 -805 rmoveto
          -84 callsubr
        </CharString>
        <CharString name="Eth">
          63 0 189 111 116 104 180 hstem
          60 182 153 201 vstem
          60 26 rmoveto
          -15 9 -11 15 vhcurveto
          198 28 callsubr
          -195 hlineto
          -11 -6 -7 -15 hvcurveto
          -262 -43 vlineto
          -54 callsubr
          43 hlineto
          230 hmoveto
          -49 callsubr
          -48 104 20 hlineto
          80 53 -23 -119 -151 -41 -38 -91 -19 -2 5 27 hvcurveto
          79 vlineto
          endchar
        </CharString>
        <CharString name="Euro">
          17 -8 198 78 64 46 64 70 196 hstem
          532 634 rmoveto
          47 -90 27 -85 -170 -133 -130 -226 -229 137 -131 164 97 92 31 54 34 -49 123 -18 -18 vhcurveto
          -16 -21 -47 -10 -29 hhcurveto
          -60 -45 34 44 -28 hvcurveto
          171 hlineto
          32 -2 64 -30 hhcurveto
          -189 hlineto
          -3 15 1 15 16 vvcurveto
          191 hlineto
          29 0 64 -29 hhcurveto
          -178 hlineto
          49 25 49 21 51 hhcurveto
          45 36 -10 -11 15 hvcurveto
          26 -18 45 122 39 vvcurveto
          endchar
        </CharString>
        <CharString name="F">
          -85 254 155 114 177 58 callsubr
          241 409 rmoveto
          114 183 vlineto
          24 -3 177 -21 hhcurveto
          -353 hlineto
          -15 -11 -3 -23 hvcurveto
          -662 vlineto
          -30 196 1 30 vvcurveto
          241 123 vlineto
          20 3 155 -24 hhcurveto
          endchar
        </CharString>
        <CharString name="G">
          64 -10 193 335 191 hstem
          30 208 184 152 vstem
          562 659 rmoveto
          31 -28 -84 19 -92 hhcurveto
          -211 -117 -149 -200 -252 139 -118 184 115 83 26 15 21 hvcurveto
          4 313 rlineto
          32 -154 -1 -30 -14 -2 -81 -41 vvcurveto
          -16 -19 -10 -29 -64 -70 47 131 107 60 50 79 35 43 -14 -15 19 vhcurveto
          28 -19 68 96 -8 93 rrcurveto
          endchar
        </CharString>
        <CharString name="H">
          87 247 198 hstem
          50 202 140 202 vstem
          392 17 rmoveto
          -23 202 2 21 vvcurveto
          661 vlineto
          29 -202 0 -29 vvcurveto
          -233 -140 235 vlineto
          28 -202 0 -28 vvcurveto
          -663 vlineto
          -24 202 3 21 vvcurveto
          230 140 vlineto
          endchar
        </CharString>
        <CharString name="I">
          -128 0 172 356 172 hstem
          116 198 vstem
          116 -81 callsubr
          endchar
        </CharString>
        <CharString name="Iacute">
          -47 callsubr
          204 277 -75 callsubr
        </CharString>
        <CharString name="Icircumflex">
          12 callsubr
          209 -20 -70 callsubr
          224 197 -106 callsubr
          endchar
        </CharString>
        <CharString name="Idieresis">
          12 callsubr
          hstemhm
          32 139 -54 198 -53 139 hintmask 11101000
          32 -73 callsubr
          hintmask 11010000
          -145 -719 -87 callsubr
          endchar
        </CharString>
        <CharString name="Igrave">
          -47 callsubr
          165 202 -68 callsubr
        </CharString>
        <CharString name="J">
          -95 10 -21 539 172 hstem
          227 198 vstem
          9 90 rmoveto
          -63 76 -38 109 125 106 62 138 vhcurveto
          472 vlineto
          19 -11 20 -29 vhcurveto
          -238 hlineto
          -36 0 -172 36 hhcurveto
          80 -255 hlineto
          -3 -98 -89 -13 -72 48 rrcurveto
          -28 -19 -26 -64 -37 vvcurveto
          endchar
        </CharString>
        <CharString name="K">
          63 50 200 vstem
          50 16 rmoveto
          -21 200 -2 21 vvcurveto
          241 16 vlineto
          114 -218 rlineto
          65 -117 174 158 3 vvcurveto
          -202 279 174 314 17 29 -224 7 -12 -23 rlinecurve
          -122 -256 rlineto
          256 vlineto
          22 -200 0 -22 vvcurveto
          endchar
        </CharString>
        <CharString name="L">
          -122 0 191 hstem
          40 203 vstem
          40 59 rmoveto
          -28 17 -31 31 vhcurveto
          308 hlineto
          37 2 191 -38 hhcurveto
          -154 490 hlineto
          28 -203 0 -28 vvcurveto
          endchar
        </CharString>
        <CharString name="Lslash">
          -88 0 167 125 27 callsubr
          68 202 vstem
          68 26 rmoveto
          -15 1 -11 23 vhcurveto
          332 hlineto
          37 -1 167 -38 hhcurveto
          -152 125 96 hlineto
          -49 callsubr
          -96 277 hlineto
          31 -202 2 -33 vvcurveto
          -277 -33 vlineto
          -54 callsubr
          33 hlineto
          endchar
        </CharString>
        <CharString name="M">
          350 61 190 399 193 vstem
          661 19 rmoveto
          -29 197 6 24 vvcurveto
          -29 656 rlineto
          30 -266 6 -12 -37 vhcurveto
          -98 -316 -112 315 rlineto
          -12 33 -256 4 -34 vvcurveto
          -23 -650 -2 -39 194 6 2 31 rlinecurve
          14 399 126 -411 3 -14 126 0 5 15 rlinecurve
          122 406 rlineto
          endchar
        </CharString>
        <CharString name="N">
          91 50 185 177 186 vstem
          402 16 rmoveto
          12 -20 184 -2 28 vvcurveto
          659 vlineto
          27 -186 -3 -24 vvcurveto
          -314 vlineto
          -160 308 rlineto
          -20 32 -182 0 -21 vvcurveto
          -669 vlineto
          -24 185 0 24 vvcurveto
          311 vlineto
          endchar
        </CharString>
        <CharString name="Ntilde">
          100 754 31 callsubr
          43 185 177 186 hintmask 01110000
          186 753 -26 callsubr
          hintmask 10110000
          -89 callsubr
          hintmask 01110000
          -79 callsubr
          214 -747 rmoveto
          12 -20 179 -2 28 vvcurveto
          675 vlineto
          27 -186 -3 -24 vvcurveto
          -320 vlineto
          -165 318 rlineto
          -20 32 -177 0 -21 vvcurveto
          -685 vlineto
          -24 185 0 24 vvcurveto
          317 vlineto
          endchar
        </CharString>
        <CharString name="O">
          -1 callsubr
          30 349 -102 callsubr
        </CharString>
        <CharString name="OE">
          320 -14 190 -176 176 100 148 98 178 11 -20 hstemhm
          30 206 228 140 hintmask 10110110
          30 348 rmoveto
          -245 143 -117 172 vhcurveto
          hintmask 01110110
          37 32 5 9 27 hvcurveto
          4 hlineto
          345 hlineto
          30 7 176 -37 hhcurveto
          -186 100 129 hlineto
          26 2 148 -26 hhcurveto
          -131 98 187 hlineto
          26 4 178 -30 hhcurveto
          -351 hlineto
          hintmask 10101110
          8 -31 -28 3 -32 hhcurveto
          -172 -147 -112 -251 hvcurveto
          206 hmoveto
          114 54 55 61 59 54 -53 -116 -109 -49 -56 -64 -67 -48 56 109 vhcurveto
          endchar
        </CharString>
        <CharString name="Oacute">
          -1 callsubr
          453 -46 callsubr
          -252 -381 -102 callsubr
        </CharString>
        <CharString name="Ocircumflex">
          29 callsubr
          200 -20 0 callsubr
          473 725 -106 callsubr
          -318 -449 -102 callsubr
        </CharString>
        <CharString name="Odieresis">
          29 callsubr
          hstemhm
          30 205 -72 14 callsubr
          -71 205 hintmask 11011000
          163 -73 callsubr
          hintmask 11100100
          -363 -542 -102 callsubr
        </CharString>
        <CharString name="Ograve">
          -1 callsubr
          414 730 -90 callsubr
          -213 -456 -102 callsubr
        </CharString>
        <CharString name="Oslash">
          -10 148 426 145 hstem
          30 173 290 173 vstem
          30 349 rmoveto
          -128 38 -90 61 -60 vhcurveto
          -45 -87 -18 -36 103 -51 19 34 rlinecurve
          40 78 rlineto
          -12 36 39 -7 40 hhcurveto
          181 142 103 256 140 -42 93 -69 59 hvcurveto
          44 85 19 35 -104 52 -19 -35 rlinecurve
          -43 -83 rlineto
          9 -34 -35 5 -37 hhcurveto
          -27 callsubr
          hvcurveto
          463 hmoveto
          -139 -62 -72 -83 -18 -16 3 6 -15 vhcurveto
          171 329 rlineto
          15 -33 8 -42 -52 vvcurveto
          -290 hmoveto
          145 69 70 76 11 11 -2 -3 12 vhcurveto
          -164 -316 rlineto
          -10 29 -5 35 42 vvcurveto
          endchar
        </CharString>
        <CharString name="Otilde">
          29 callsubr
          45 31 callsubr
          30 205 226 205 hintmask 11011100
          205 753 -39 callsubr
          -175 -404 -102 callsubr
        </CharString>
        <CharString name="P">
          13 198 69 callsubr
          193 96 197 vstem
          532 462 rmoveto
          147 -73 91 -206 vhcurveto
          -176 hlineto
          -23 -8 -11 -23 hvcurveto
          -648 vlineto
          -27 193 3 25 vvcurveto
          179 4 callsubr
        </CharString>
        <CharString name="Q">
          149 517 192 0 callsubr
          30 349 rmoveto
          -210 108 -118 142 -27 vhcurveto
          146 -162 44 -48 133 127 -33 24 rlinecurve
          -106 73 rlineto
          119 40 83 108 193 vvcurveto
          -100 callsubr
        </CharString>
        <CharString name="R">
          33 373 150 0 177 hstemhm
          50 191 100 200 hintmask 01110000
          541 495 rmoveto
          133 -82 72 -181 vhcurveto
          -191 hlineto
          -29 -8 -15 -20 hvcurveto
          -652 vlineto
          -19 191 -1 21 vvcurveto
          227 31 vlineto
          94 -219 40 -75 153 100 16 45 rlinecurve
          -126 210 rlineto
          60 40 32 72 81 vvcurveto
          -300 28 rmoveto
          21 hlineto
          57 22 -24 -47 hvcurveto
          hintmask 10110000
          -60 -43 -19 -52 vhcurveto
          -5 hlineto
          endchar
        </CharString>
        <CharString name="S">
          -26 -77 callsubr
          endchar
        </CharString>
        <CharString name="Scaron">
          -21 -77 callsubr
          64 674 -86 callsubr
        </CharString>
        <CharString name="T">
          -55 518 182 hstem
          153 198 vstem
          351 518 rmoveto
          117 hlineto
          35 0 182 -35 hhcurveto
          -435 hlineto
          -36 0 -182 36 hhcurveto
          120 -502 hlineto
          -28 198 3 25 vvcurveto
          endchar
        </CharString>
        <CharString name="Thorn">
          38 118 69 callsubr
          192 97 197 vstem
          532 382 rmoveto
          147 -67 91 -227 vhcurveto
          80 vlineto
          15 -192 4 -20 vvcurveto
          -686 vlineto
          -31 193 1 31 vvcurveto
          104 4 callsubr
        </CharString>
        <CharString name="U">
          10 callsubr
          459 15 callsubr
          -452 16 callsubr
          451 18 callsubr
          -443 2 callsubr
          endchar
        </CharString>
        <CharString name="Uacute">
          71 11 -21 13 callsubr
          419 -46 callsubr
          63 -740 rmoveto
          -66 callsubr
        </CharString>
        <CharString name="Ucircumflex">
          71 11 -21 919 -20 13 callsubr
          439 725 -106 callsubr
          -3 -808 rmoveto
          -66 callsubr
        </CharString>
        <CharString name="Udieresis">
          71 11 -21 hstemhm
          30 217 -118 14 callsubr
          -121 217 hintmask 10110000
          129 -73 callsubr
          -48 -901 rmoveto
          hintmask 11001000
          -66 callsubr
        </CharString>
        <CharString name="Ugrave">
          71 11 -21 hstem
          30 217 130 217 vstem
          311 -10 rmoveto
          -65 callsubr
          69 740 -68 callsubr
        </CharString>
        <CharString name="V">
          104 186 21 rmoveto
          8 -30 271 1 8 34 177 662 rcurveline
          9 -233 21 -8 -46 vhcurveto
          -81 -440 -86 440 rlineto
          -8 50 -223 -27 -8 vvcurveto
          endchar
        </CharString>
        <CharString name="W">
          396 538 25 rmoveto
          8 -42 257 12 8 31 121 663 rcurveline
          4 19 -219 -1 -4 -23 -58 -425 rcurveline
          -104 429 -6 20 -144 -2 -6 -19 rlinecurve
          -106 -426 -49 421 -4 25 -219 -2 4 -15 rlinecurve
          103 -665 8 -39 256 3 8 37 rlinecurve
          74 274 rlineto
          endchar
        </CharString>
        <CharString name="X">
          126 273 668 rmoveto
          -21 57 -238 -28 4 -7 162 -330 rcurveline
          -156 -346 -7 -14 230 -17 16 44 rlinecurve
          68 197 75 -191 20 -56 244 29 -4 7 rlinecurve
          -176 331 170 346 rlineto
          6 -218 28 -21 -51 vhcurveto
          -79 -173 rlineto
          endchar
        </CharString>
        <CharString name="Y">
          58 204 219 vstem
          241 667 rmoveto
          34 callsubr
          -422 rcurveline
          -238 vlineto
          46 callsubr
          244 vlineto
          208 418 33 callsubr
          -204 rlineto
          endchar
        </CharString>
        <CharString name="Yacute">
          58 204 219 vstem
          412 -46 callsubr
          -56 vmoveto
          -21 callsubr
          endchar
        </CharString>
        <CharString name="Ydieresis">
          58 123 139 -58 219 -70 139 hintmask 01000000
          241 674 rmoveto
          -21 callsubr
          hintmask 10100000
          -191 295 -58 callsubr
        </CharString>
        <CharString name="Z">
          -17 callsubr
          -2 -5 148 -78 vhcurveto
          -370 59 callsubr
          endchar
        </CharString>
        <CharString name="Zcaron">
          -17 callsubr
          5 3 -43 141 -24 hhcurveto
          -389 59 callsubr
          -120 390 -86 callsubr
        </CharString>
        <CharString name="a">
          -103 callsubr
          endchar
        </CharString>
        <CharString name="aacute">
          -103 callsubr
          163 426 -75 callsubr
        </CharString>
        <CharString name="acircumflex">
          -57 callsubr
          199 -20 56 callsubr
          hintmask 01111110
          368 -76 callsubr
          192 -430 -107 callsubr
          hintmask 01111101
          -28 callsubr
          hintmask 01111110
          -50 callsubr
          hintmask 10111110
          -7 callsubr
        </CharString>
        <CharString name="acute">
          -200 287 22 callsubr
          endchar
        </CharString>
        <CharString name="adieresis">
          -57 callsubr
          54 callsubr
          -125 139 62 168 -168 241 -212 139 hintmask 0111010010000000
          63 -74 callsubr
          142 -523 -101 callsubr
          hintmask 1011101000000000
          -97 callsubr
          hintmask 0111100100000000
          -28 callsubr
          -50 callsubr
          hintmask 1011101000000000
          -7 callsubr
        </CharString>
        <CharString name="ae">
          128 -10 126 -126 139 39 109 -61 102 32 148 -131 131 hstemhm
          14 167 321 163 hintmask 10100111
          419 154 rmoveto
          14 66 vlineto
          127 53 61 99 87 -68 83 -132 -48 -37 -21 -16 -31 hvcurveto
          15 -25 -40 17 -45 hhcurveto
          -43 -61 -5 -19 -41 hvcurveto
          -13 -7 -4 -10 -15 vvcurveto
          -19 7 -21 7 -17 vhcurveto
          4 -10 5 -10 5 -9 10 3 11 2 12 3 rrcurveto
          4 20 28 4 28 hhcurveto
          31 10 -7 -33 hvcurveto
          hintmask 10011011
          -9 -54 vlineto
          -128 -59 -56 -104 -91 70 -77 96 65 41 17 36 31 hvcurveto
          -35 40 52 -18 55 hhcurveto
          73 47 13 23 40 hvcurveto
          13 7 5 12 15 38 -32 48 1 vvcurveto
          -23 -47 -35 -8 -47 hhcurveto
          -35 -22 7 31 -5 hvcurveto
          -238 18 rmoveto
          27 15 17 31 vhcurveto
          28 -73 hlineto
          hintmask 01101011
          -9 -10 -11 -5 -13 hhcurveto
          -23 -17 14 29 hvcurveto
          321 138 rmoveto
          -22 -11 -11 -21 vhcurveto
          -51 39 hlineto
          1 vlineto
          23 5 19 10 19 hhcurveto
          27 13 -13 -27 hvcurveto
          endchar
        </CharString>
        <CharString name="agrave">
          -103 callsubr
          131 351 -68 callsubr
        </CharString>
        <CharString name="ampersand">
          110 -10 165 321 234 -156 156 hstemhm
          44 193 -171 171 113 167 hintmask 10101100
          398 422 rmoveto
          -86 -11 -75 7 76 vvcurveto
          37 23 23 35 28 27 -20 -35 vhcurveto
          -4 -1 -3 -3 vvcurveto
          hintmask 11001100
          -1 17 -13 43 hhcurveto
          61 48 27 22 113 -85 72 -135 -136 -95 -79 -131 -56 15 -48 48 -53 hvcurveto
          hintmask 11010100
          -47 -35 -38 -49 -67 vvcurveto
          -117 95 -85 149 170 72 85 98 56 -14 29 -12 29 vhcurveto
          102 12 24 54 6 99 -42 -5 rlinecurve
          -355 -162 rmoveto
          25 -15 45 -2 53 9 rrcurveto
          -4 1 -4 -5 vvcurveto
          -75 7 -27 -34 -44 hhcurveto
          -67 -17 61 69 24 hvcurveto
          endchar
        </CharString>
        <CharString name="aring">
          -57 callsubr
          19 65 callsubr
          hstemhm
          14 179 -31 31 71 21 callsubr
          -192 29 hintmask 0111110100100000
          162 619 -60 callsubr
          hintmask 0111111010000000
          242 -452 -107 callsubr
          hintmask 0111111001000000
          -28 callsubr
          hintmask 0111111010000000
          -50 callsubr
          hintmask 1011111010000000
          -7 callsubr
        </CharString>
        <CharString name="asciicircum">
          130 353 679 rmoveto
          -15 15 -16 -4 -15 -15 -256 -231 rcurveline
          -28 -28 73 -93 27 29 211 205 rcurveline
          224 -202 27 -30 71 93 -26 29 rlinecurve
          endchar
        </CharString>
        <CharString name="asciitilde">
          -98 227 31 callsubr
          hintmask 01000000
          74 226 -45 callsubr
        </CharString>
        <CharString name="asterisk">
          0 241 87 vstem
          330 668 rmoveto
          3 37 -99 0 3 -37 4 -119 rcurveline
          -44 8 -37 8 -43 7 -32 3 -22 -88 41 -3 38 -4 38 -5 39 -5 -70 -111 rcurveline
          -22 -33 89 -44 13 27 54 113 rcurveline
          59 -113 15 -28 88 36 -21 39 rlinecurve
          -74 114 115 14 40 5 -20 86 -32 -3 rlinecurve
          -43 -7 -41 -8 -43 -8 rrcurveto
          endchar
        </CharString>
        <CharString name="at">
          310 -88 107 86 110 168 118 70 101 hstem
          39 111 76 140 301 120 vstem
          577 37 rmoveto
          -13 -39 -56 -5 -47 hhcurveto
          -190 -95 79 159 184 116 130 190 125 86 -80 -129 -132 -55 -16 -18 hvcurveto
          -42 2 rlineto
          20 145 8 62 7 vvcurveto
          68 -57 3 -49 -119 -129 -107 -152 -95 53 -42 76 51 34 14 27 31 vhcurveto
          -19 17 42 -23 45 hhcurveto
          110 102 79 175 186 -128 128 -197 -253 -170 -167 -253 -220 145 -120 225 75 123 5 54 19 -8 16 -7 12 hvcurveto
          -5 7 -5 7 -5 5 rrcurveto
          -151 188 rmoveto
          -6 -5 -9 -3 -13 hhcurveto
          -19 -14 10 27 hvcurveto
          73 3 38 57 28 hhcurveto
          9 3 -8 -7 -1 hvcurveto
          endchar
        </CharString>
        <CharString name="atilde">
          -57 callsubr
          44 109 -69 106 56 callsubr
          hintmask 1011011100000000
          110 60 callsubr
          hintmask 1011101100000000
          -89 callsubr
          hintmask 0111011100000000
          -79 callsubr
          325 -385 -107 callsubr
          hintmask 0111101010000000
          -28 callsubr
          hintmask 0111101100000000
          -50 callsubr
          hintmask 1011101100000000
          -7 callsubr
        </CharString>
        <CharString name="b">
          -37 11 -21 520 -20 hstem
          50 173 89 182 vstem
          284 52 callsubr
          18 -173 -1 -16 vvcurveto
          -654 vlineto
          -32 47 66 -21 87 hhcurveto
          153 91 100 179 57 callsubr
          -108 -54 -7 -35 16 vhcurveto
          191 vlineto
          32 21 57 4 -117 vvcurveto
          endchar
        </CharString>
        <CharString name="backslash">
          30 120 775 rmoveto
          -21 33 -100 -58 21 -34 467 -811 rcurveline
          19 -34 100 58 -19 35 rrcurveto
          endchar
        </CharString>
        <CharString name="bar">
          71 253 66 callsubr
          369 893 rmoveto
          9 callsubr
          -1083 vlineto
          20 callsubr
          endchar
        </CharString>
        <CharString name="braceleft">
          -195 109 66 callsubr
          225 202 rmoveto
          45 -29 40 -29 28 vhcurveto
          29 29 29 38 65 vvcurveto
          250 vlineto
          24 24 32 27 27 vhcurveto
          27 27 -90 60 -30 -25 rrcurveto
          -36 -30 -38 -44 -56 vvcurveto
          -255 vlineto
          -40 -24 -29 -39 -15 vhcurveto
          -26 -9 11 -93 15 -8 rrcurveto
          37 -16 26 -38 -32 vvcurveto
          -240 vlineto
          -77 38 -38 32 -30 vhcurveto
          29 -26 97 65 -29 24 rrcurveto
          -25 20 -26 29 33 vvcurveto
          endchar
        </CharString>
        <CharString name="braceright">
          -195 137 119 vstem
          138 -63 rmoveto
          -33 -27 -29 -25 -20 vhcurveto
          -29 -24 97 -65 29 26 rrcurveto
          32 30 41 38 77 vvcurveto
          240 vlineto
          32 23 38 37 16 vhcurveto
          15 8 11 93 -26 9 rrcurveto
          -39 15 -21 29 40 vvcurveto
          255 vlineto
          55 -42 46 -35 29 vhcurveto
          -30 25 -91 -60 28 -27 rrcurveto
          27 -27 24 -32 -24 vvcurveto
          -250 vlineto
          -65 29 -38 29 -29 vhcurveto
          -29 -28 -28 -40 -45 vvcurveto
          endchar
        </CharString>
        <CharString name="bracketleft">
          55 callsubr
          80 66 callsubr
          109 798 rmoveto
          -20 -9 -13 -16 hvcurveto
          -856 vlineto
          -15 9 -14 20 vhcurveto
          216 hlineto
          -49 callsubr
          -129 682 129 hlineto
          -49 callsubr
          endchar
        </CharString>
        <CharString name="bracketright">
          55 callsubr
          189 66 callsubr
          60 798 rmoveto
          -54 callsubr
          129 -682 -129 -24 callsubr
          216 hlineto
          20 9 14 15 hvcurveto
          856 vlineto
          16 -9 13 -20 vhcurveto
          endchar
        </CharString>
        <CharString name="brokenbar">
          -142 153 66 callsubr
          269 193 rmoveto
          9 callsubr
          -383 vlineto
          20 callsubr
          901 vmoveto
          9 callsubr
          -356 vlineto
          20 callsubr
          endchar
        </CharString>
        <CharString name="bullet">
          -200 169 190 hstem
          83 190 vstem
          83 264 rmoveto
          -52 43 -43 52 52 43 43 52 52 -43 43 -52 -52 -43 -43 -52 vhcurveto
          endchar
        </CharString>
        <CharString name="c">
          -133 -10 160 200 160 hstem
          26 183 vstem
          -11 callsubr
          -168 105 -89 117 63 44 10 23 37 hvcurveto
          16 13 -21 130 -21 hhcurveto
          49 callsubr
        </CharString>
        <CharString name="caron">
          -74 545 -21 hstem
          118 708 -86 callsubr
        </CharString>
        <CharString name="ccedilla">
          -133 150 200 0 160 hstemhm
          26 183 hintmask 01100000
          -11 callsubr
          -148 82 -89 101 -16 hvcurveto
          -31 vlineto
          53 callsubr
          -25 -7 -80 -11 21 hvcurveto
          27 -14 31 -5 35 3 35 3 24 16 14 27 13 25 -1 41 -15 57 37 4 33 10 27 16 rrcurveto
          16 13 -21 130 -21 hhcurveto
          hintmask 10100000
          49 callsubr
        </CharString>
        <CharString name="cedilla">
          -155 -169 103 -103 190 hstemhm
          hintmask 10000000
          194 -34 rmoveto
          53 callsubr
          -29 -9 -77 -11 27 hvcurveto
          29 -13 34 -5 38 3 39 3 24 14 9 27 rrcurveto
          hintmask 01000000
          10 26 -12 49 -33 71 rrcurveto
          -61 -55 hlineto
          endchar
        </CharString>
        <CharString name="cent">
          -29 35 170 72 56 -56 198 hintmask 11000000
          333 707 rmoveto
          24 -56 2 -26 vvcurveto
          -63 vlineto
          -140 -11 -102 -95 -179 vvcurveto
          -192 101 -94 141 -8 vhcurveto
          -61 vlineto
          -28 56 0 28 vvcurveto
          62 vlineto
          hintmask 10100000
          80 5 62 29 47 vvcurveto
          69 -48 61 0 vhcurveto
          hintmask 11000000
          -24 -11 -29 -8 -41 -3 rrcurveto
          206 vlineto
          35 -2 25 -6 17 -10 rrcurveto
          0 64 75 -1 59 vhcurveto
          37 -67 25 -73 5 vhcurveto
          -128 -285 rmoveto
          67 32 25 40 8 vhcurveto
          -202 vlineto
          -40 9 -32 28 65 vvcurveto
          endchar
        </CharString>
        <CharString name="circumflex">
          -77 709 -20 hstem
          368 -76 callsubr
          endchar
        </CharString>
        <CharString name="colon">
          -280 58 189 vstem
          58 -4 -63 callsubr
          141 vmoveto
          -67 callsubr
          endchar
        </CharString>
        <CharString name="comma">
          -252 118 -43 callsubr
          endchar
        </CharString>
        <CharString name="copyright">
          136 195 58 65 96 110 92 64 53 hstemhm
          84 58 74 109 -109 239 114 53 hintmask 11111011
          -53 callsubr
          308 116 rmoveto
          21 -43 12 -40 -83 -68 -54 -96 -97 65 -51 85 45 44 14 23 22 -23 55 -10 -7 vhcurveto
          -8 -8 -21 -3 -11 hhcurveto
          hintmask 11111101
          -31 -26 14 41 39 24 16 24 23 13 -7 -3 5 hvcurveto
          12 -9 24 58 20 vvcurveto
          endchar
        </CharString>
        <CharString name="currency">
          171 97 141 rmoveto
          -20 -20 61 -62 21 21 79 79 rcurveline
          71 -48 92 2 72 46 79 -79 rcurveline
          19 -22 60 64 -18 18 -79 79 rcurveline
          49 73 1 94 -48 72 81 80 rcurveline
          19 22 -62 61 -19 -22 -80 -80 rcurveline
          -73 49 -95 1 -72 -51 -81 81 rcurveline
          -21 21 -62 -64 21 -18 82 -82 rcurveline
          -47 -72 2 -92 47 -72 rrcurveto
          94 203 rmoveto
          47 47 77 2 45 -48 47 -47 0 -76 -47 -47 -45 -45 -77 -1 -47 47 -46 49 -1 72 47 47 rrcurveto
          endchar
        </CharString>
        <CharString name="d">
          8 -10 179 341 -20 hstem
          26 183 89 177 vstem
          475 169 rmoveto
          527 vlineto
          13 -177 9 -24 vvcurveto
          -190 vlineto
          -14 3 rlineto
          1 -9 -13 2 -19 hhcurveto
          -117 -100 -87 -170 -176 98 -87 104 71 38 26 27 28 hvcurveto
          0 27 -54 75 1 vhcurveto
          96 -3 179 -50 hhcurveto
          -301 80 rmoveto
          108 52 4 37 -21 vhcurveto
          -170 vlineto
          -29 -26 -60 -5 110 vvcurveto
          endchar
        </CharString>
        <CharString name="dagger">
          -82 406 27 callsubr
          182 66 callsubr
          298 406 rmoveto
          112 hlineto
          40 callsubr
          181 hlineto
          9 callsubr
          -181 -113 vlineto
          44 callsubr
          -456 hlineto
          20 callsubr
          endchar
        </CharString>
        <CharString name="daggerdbl">
          -77 116 116 204 27 callsubr
          182 66 callsubr
          410 116 rmoveto
          40 callsubr
          204 112 hlineto
          40 callsubr
          151 hlineto
          9 callsubr
          -151 -113 vlineto
          44 callsubr
          -204 -113 hlineto
          44 callsubr
          -166 hlineto
          20 callsubr
          166 vlineto
          endchar
        </CharString>
        <CharString name="degree">
          -171 353 75 196 75 hstem
          40 68 168 69 6 callsubr
          68 hmoveto
          63 32 35 53 52 31 -35 -63 -63 -31 -35 -52 -53 -32 35 63 vhcurveto
          endchar
        </CharString>
        <CharString name="dieresis">
          -100 38 14 callsubr
          vstem
          38 -74 callsubr
          endchar
        </CharString>
        <CharString name="divide">
          54 290 27 callsubr
          227 147 vstem
          227 92 rmoveto
          -6 147 1 6 vvcurveto
          142 vlineto
          5 -147 1 -9 vvcurveto
          230 vmoveto
          -8 147 2 6 vvcurveto
          143 vlineto
          5 -147 1 -9 vvcurveto
          300 -312 rmoveto
          45 0 116 -45 hhcurveto
          -454 hlineto
          -45 0 -116 45 hhcurveto
          endchar
        </CharString>
        <CharString name="dollar">
          -26 -10 172 110 155 hstemhm
          34 152 61 56 -56 238 -111 139 hintmask 11110100
          303 767 rmoveto
          39 -56 0 -39 vvcurveto
          -59 vlineto
          -132 -16 -81 -82 -120 vvcurveto
          -141 78 -69 135 -8 vhcurveto
          -110 vlineto
          -51 3 -41 14 -31 13 -17 7 -16 9 -15 9 rrcurveto
          -1 -42 -51 -74 vvcurveto
          -60 108 -38 105 -3 vhcurveto
          -66 vlineto
          -39 56 38 callsubr
          69 vlineto
          150 16 60 105 111 vvcurveto
          141 -83 56 -127 5 vhcurveto
          113 vlineto
          57 -5 30 -15 46 -19 rrcurveto
          hintmask 11101000
          9 3 40 87 46 vvcurveto
          hintmask 11110100
          52 -99 18 -83 3 vhcurveto
          71 -480 rmoveto
          -33 -24 -25 -47 -8 vhcurveto
          108 vlineto
          51 -3 20 -7 -32 vvcurveto
          -188 249 rmoveto
          28 17 25 44 7 vhcurveto
          -109 vlineto
          -44 5 -17 16 28 vvcurveto
          endchar
        </CharString>
        <CharString name="dotlessi">
          -308 38 177 vstem
          38 5 -52 callsubr
        </CharString>
        <CharString name="e">
          -10 callsubr
          423 27 -99 callsubr
        </CharString>
        <CharString name="eacute">
          -10 callsubr
          352 22 callsubr
          242 -503 -99 callsubr
        </CharString>
        <CharString name="ecircumflex">
          -9 callsubr
          199 -20 23 callsubr
          372 -76 callsubr
          176 -571 -99 callsubr
        </CharString>
        <CharString name="edieresis">
          -9 callsubr
          hstemhm
          26 175 -139 14 callsubr
          -139 174 hintmask 11110100
          62 51 callsubr
          hintmask 11101100
          5 callsubr
          131 -664 rmoveto
          -78 callsubr
          hintmask 11110010
          -94 callsubr
        </CharString>
        <CharString name="egrave">
          -10 callsubr
          313 -20 callsubr
          281 -578 -99 callsubr
        </CharString>
        <CharString name="eight">
          13 -11 167 399 154 hstemhm
          27 198 -169 169 108 176 -164 193 hintmask 11011000
          509 526 rmoveto
          108 -86 75 -136 -136 -95 -82 -107 -64 31 -48 37 -32 vhcurveto
          hintmask 11100100
          -48 -37 -49 -55 -83 vvcurveto
          -118 88 -94 171 149 103 92 130 80 -43 65 -51 37 vhcurveto
          hintmask 11101000
          32 31 32 41 1 61 rrcurveto
          -284 -306 rmoveto
          47 31 30 20 12 vhcurveto
          hintmask 11100100
          28 -14 41 -25 -50 vvcurveto
          -39 -26 -25 -32 -35 -27 24 40 vhcurveto
          5 286 rmoveto
          31 1 20 18 32 hhcurveto
          hintmask 11101000
          24 26 -21 -31 -35 -15 -26 -19 -21 hvcurveto
          -40 23 -29 25 37 vvcurveto
          endchar
        </CharString>
        <CharString name="ellipsis">
          352 58 189 114 189 114 189 cntrmask 11100000
          58 -4 -63 callsubr
          303 -180 -63 callsubr
          303 -180 -63 callsubr
          endchar
        </CharString>
        <CharString name="emdash">
          232 48 callsubr
          670 36 callsubr
          -573 -30 callsubr
        </CharString>
        <CharString name="endash">
          -88 48 callsubr
          392 36 callsubr
          -315 -30 callsubr
        </CharString>
        <CharString name="equal">
          23 160 116 108 27 callsubr
          492 160 -14 callsubr
          -395 -24 callsubr
          395 224 -8 callsubr
        </CharString>
        <CharString name="eth">
          17 -10 164 121 125 309 -20 hstem
          40 173 116 191 vstem
          288 489 rmoveto
          23 -35 17 -33 3 -35 rrcurveto
          9 -33 -32 5 -30 hhcurveto
          -104 -92 -56 -139 -121 77 -94 143 167 93 108 201 92 -19 73 -31 61 hvcurveto
          57 12 rlineto
          15 3 7 13 16 vvcurveto
          20 -12 23 -20 vhcurveto
          -4 hlineto
          -84 -17 rlineto
          58 -40 -47 56 -54 hhcurveto
          -31 -27 -22 -23 -21 hvcurveto
          -12 -13 -11 -14 -11 -17 16 -15 23 -22 23 -27 -117 -24 rcurveline
          -16 -3 -7 -13 -16 vvcurveto
          -20 12 -23 20 vhcurveto
          3 -1 1 3 hhcurveto
          79 -243 rmoveto
          35 18 25 33 29 22 -5 -9 13 vhcurveto
          1 -7 0 -5 -7 vvcurveto
          -44 -16 -44 -51 -33 -16 20 41 vhcurveto
          endchar
        </CharString>
        <CharString name="exclam">
          -270 45 175 -163 163 hintmask 01000000
          230 703 rmoveto
          10 -183 -1 -10 vvcurveto
          20 -493 rlineto
          -9 143 3 7 vvcurveto
          20 -59 rmoveto
          hintmask 10000000
          9 -185 -2 -8 vvcurveto
          -147 vlineto
          -9 185 1 12 vvcurveto
          endchar
        </CharString>
        <CharString name="exclamdown">
          -270 55 163 -163 175 hintmask 10000000
          45 -191 rmoveto
          45 callsubr
          -20 481 rlineto
          9 -143 -3 -7 vvcurveto
          -20 59 rmoveto
          hintmask 01000000
          -9 185 2 8 vvcurveto
          147 vlineto
          9 -185 -1 -12 vvcurveto
          endchar
        </CharString>
        <CharString name="f">
          -182 42 callsubr
          84 163 -163 177 hintmask 11010000
          84 367 rmoveto
          -355 vlineto
          -15 177 -2 17 vvcurveto
          354 64 vlineto
          30 -3 134 -22 hhcurveto
          hintmask 11100000
          -83 21 hlineto
          31 11 21 28 27 19 -6 -15 24 vhcurveto
          16 8 30 73 28 vvcurveto
          11 -3 6 -5 2 vhcurveto
          23 -48 -40 6 -47 hhcurveto
          -105 -70 -37 -150 hvcurveto
          35 callsubr
          endchar
        </CharString>
        <CharString name="fi">
          91 42 callsubr
          85 150 -150 167 128 183 hintmask 11011000
          85 39 callsubr
          128 -361 vlineto
          45 callsubr
          467 vlineto
          18 -13 9 -25 vhcurveto
          hintmask 11101000
          -290 -18 callsubr
          344 191 rmoveto
          -9 185 -2 9 vvcurveto
          147 vlineto
          9 -185 -1 -12 vvcurveto
          endchar
        </CharString>
        <CharString name="five">
          -33 -10 168 152 137 73 180 hstem
          73 156 46 199 vstem
          52 22 rmoveto
          -19 31 57 -13 68 hhcurveto
          164 102 95 139 123 -62 100 -150 hvcurveto
          -33 hlineto
          1 73 rlineto
          195 hlineto
          25 4 180 -27 hhcurveto
          -324 hlineto
          -20 -10 -14 -27 hvcurveto
          -313 vlineto
          -24 17 -15 13 3 vhcurveto
          86 1 rlineto
          47 39 -21 -59 -44 -39 -29 -43 -35 -29 9 20 -49 hvcurveto
          -23 31 -25 -165 20 -31 rrcurveto
          endchar
        </CharString>
        <CharString name="fl">
          90 42 callsubr
          84 150 -150 167 129 183 hintmask 11011000
          84 39 callsubr
          129 -361 vlineto
          45 callsubr
          697 vlineto
          9 -183 -1 -12 vvcurveto
          -199 vlineto
          hintmask 11101000
          -146 -18 callsubr
          endchar
        </CharString>
        <CharString name="florin">
          -135 -195 136 425 134 73 136 hstem
          116 367 rmoveto
          -37 -374 rlineto
          -31 -3 -14 -21 -28 hhcurveto
          -27 -29 6 15 -23 hvcurveto
          -9 -13 -7 -12 -7 -12 rrcurveto
          -11 -21 -11 -25 -20 vvcurveto
          -40 65 -14 62 102 87 37 140 19 vhcurveto
          38 384 rlineto
          74 hlineto
          24 19 134 -24 hhcurveto
          -93 hlineto
          3 21 rlineto
          31 4 11 21 29 hhcurveto
          27 18 -6 -15 23 hvcurveto
          -1 64 59 48 vvcurveto
          40 -104 11 -39 -97 -73 -37 -150 -16 vhcurveto
          -3 -22 rlineto
          -69 hlineto
          -15 -23 -133 24 hhcurveto
          endchar
        </CharString>
        <CharString name="four">
          41 144 154 hstemhm
          277 203 -174 174 hintmask 11000000
          277 20 rmoveto
          -29 204 6 24 vvcurveto
          126 vlineto
          66 1 rlineto
          12 3 151 -15 hhcurveto
          -66 hlineto
          -1 401 rlineto
          7 -236 -1 -9 -17 vhcurveto
          -219 -388 -24 -43 62 -90 24 -24 rlinecurve
          199 hlineto
          -88 154 rmoveto
          hintmask 10100000
          117 209 rlineto
          -209 vlineto
          endchar
        </CharString>
        <CharString name="fraction">
          -244 -82 108 rmoveto
          -21 -34 100 -58 21 33 328 570 63 callsubr
        </CharString>
        <CharString name="g">
          -41 -193 132 82 -21 509 -20 hstem
          26 182 90 173 vstem
          229 hmoveto
          24 29 5 3 16 hvcurveto
          -30 vlineto
          -23 -18 -16 -37 -48 -42 6 23 -53 vhcurveto
          -22 -32 -7 -66 18 -39 rrcurveto
          -13 40 48 -11 81 hhcurveto
          118 95 51 102 hvcurveto
          498 vlineto
          32 -47 -61 19 -88 hhcurveto
          -141 -108 -90 -178 -156 75 -85 128 hvcurveto
          -21 245 rmoveto
          94 45 15 45 -11 vhcurveto
          -190 vlineto
          -44 -10 -46 9 93 vvcurveto
          endchar
        </CharString>
        <CharString name="germandbls">
          115 -10 173 547 -20 hstemhm
          82 175 119 179 -119 191 hintmask 11101000
          289 84 rmoveto
          -61 62 -33 77 132 67 92 101 116 -62 24 -66 32 vhcurveto
          hintmask 11110000
          31 53 25 70 60 vvcurveto
          112 -78 60 -153 -138 -104 -62 -141 vhcurveto
          -645 vlineto
          -15 176 -2 17 vvcurveto
          -1 616 rlineto
          86 119 0 -81 vvcurveto
          -24 -4 -19 -4 -13 vhcurveto
          -3 -7 -2 -7 -3 -6 -29 -1 rcurveline
          -20 -8 -39 -23 -23 5 -14 7 -11 hvcurveto
          3 -6 5 -5 5 -4 rrcurveto
          hintmask 11101000
          75 -4 33 -15 -51 vvcurveto
          -31 -26 -17 -33 -24 -28 6 9 -20 vhcurveto
          -8 -28 rlineto
          -4 -17 -4 -24 -25 vvcurveto
          endchar
        </CharString>
        <CharString name="grave">
          -207 247 -20 callsubr
          endchar
        </CharString>
        <CharString name="greater">
          -107 153 631 rmoveto
          -29 26 -93 -71 30 -27 202 -224 rcurveline
          -205 -211 -29 -27 93 -73 28 28 rlinecurve
          231 256 15 15 4 16 -15 15 rlinecurve
          endchar
        </CharString>
        <CharString name="guillemotleft">
          216 273 29 -56 callsubr
          474 -207 -56 callsubr
          endchar
        </CharString>
        <CharString name="guillemotright">
          175 652 236 -55 callsubr
          -126 207 -55 callsubr
          endchar
        </CharString>
        <CharString name="guilsinglleft">
          -60 273 29 -56 callsubr
          endchar
        </CharString>
        <CharString name="guilsinglright">
          -114 352 236 -55 callsubr
          endchar
        </CharString>
        <CharString name="h">
          -56 352 157 hstem
          45 167 83 166 vstem
          45 12 rmoveto
          -19 167 5 9 vvcurveto
          324 vlineto
          5 4 5 3 6 3 rrcurveto
          5 11 12 6 12 hhcurveto
          24 8 -18 -31 hvcurveto
          -294 vlineto
          -12 166 -2 13 vvcurveto
          310 vlineto
          160 -77 31 -87 -32 -30 -10 -7 -23 vhcurveto
          200 vlineto
          27 -167 -8 -14 vvcurveto
          endchar
        </CharString>
        <CharString name="hyphen">
          -32 48 callsubr
          460 190 -8 callsubr
        </CharString>
        <CharString name="i">
          -284 45 183 vstem
          45 5 rmoveto
          45 callsubr
          491 vlineto
          9 -183 -2 -8 vvcurveto
          59 vmoveto
          -9 183 2 8 vvcurveto
          147 vlineto
          9 -183 -1 -12 vvcurveto
          endchar
        </CharString>
        <CharString name="iacute">
          -290 45 177 vstem
          237 22 callsubr
          -21 -525 -52 callsubr
        </CharString>
        <CharString name="icircumflex">
          -290 709 -20 hstem
          45 177 vstem
          257 -76 callsubr
          -87 -593 -52 callsubr
        </CharString>
        <CharString name="idieresis">
          -290 -53 139 -41 177 -45 139 hintmask 10100000
          -53 -74 callsubr
          hintmask 01000000
          -132 -686 -52 callsubr
        </CharString>
        <CharString name="igrave">
          -290 45 177 vstem
          198 -20 callsubr
          18 -600 -52 callsubr
        </CharString>
        <CharString name="j">
          -286 -197 139 607 160 hstem
          45 181 vstem
          45 35 rmoveto
          -57 -24 -36 -104 -8 -8 0 1 -9 vhcurveto
          -2 -4 -2 -4 -1 -5 rrcurveto
          -3 -9 -2 -12 -16 vvcurveto
          -75 64 -15 65 119 96 60 101 vhcurveto
          533 vlineto
          3 -47 2 -48 -44 -42 -2 -4 vhcurveto
          59 vmoveto
          -4 39 -2 44 48 50 2 5 vhcurveto
          147 vlineto
          4 -38 2 -43 -49 -51 -3 -7 vhcurveto
          endchar
        </CharString>
        <CharString name="k">
          -26 45 176 vstem
          220 228 rmoveto
          99 -222 11 -14 199 5 -4 9 rlinecurve
          -150 281 130 212 -35 16 -142 -5 -8 -16 rlinecurve
          -99 -183 rlineto
          384 vlineto
          16 -176 3 -22 vvcurveto
          -686 vlineto
          -16 175 2 15 vvcurveto
          endchar
        </CharString>
        <CharString name="l">
          -285 45 182 vstem
          45 67 callsubr
          685 vlineto
          13 -182 2 -20 vvcurveto
          endchar
        </CharString>
        <CharString name="less">
          -73 62 354 rmoveto
          -15 -15 4 -16 15 -15 231 -256 rcurveline
          28 -28 92 72 -28 28 -205 211 rcurveline
          202 224 30 27 -95 72 -27 -27 rlinecurve
          endchar
        </CharString>
        <CharString name="logicalnot">
          56 220 27 callsubr
          390 120 vstem
          391 220 rmoveto
          -2 -136 rlineto
          -29 121 -4 30 vvcurveto
          217 vlineto
          23 -12 15 -29 vhcurveto
          -372 -30 callsubr
        </CharString>
        <CharString name="lslash">
          -176 218 27 callsubr
          95 182 vstem
          95 67 callsubr
          210 63 vlineto
          -49 callsubr
          -63 359 hlineto
          13 -182 2 -20 vvcurveto
          -354 -60 vlineto
          -54 callsubr
          60 hlineto
          endchar
        </CharString>
        <CharString name="m">
          231 43 callsubr
          hstemhm
          78 171 78 171 79 171 hintmask 01111000
          327 7 rmoveto
          -12 171 0 10 vvcurveto
          321 vlineto
          5 4 5 4 5 3 rrcurveto
          5 9 11 6 11 hhcurveto
          22 11 -17 -33 hvcurveto
          -291 vlineto
          -11 171 0 9 vvcurveto
          304 vlineto
          144 -64 57 -101 -57 -42 -20 -27 -31 vhcurveto
          32 -31 -46 15 -47 hhcurveto
          -56 -44 -24 -31 -35 hvcurveto
          19 -8 -47 36 -59 hhcurveto
          hintmask 10111000
          -69 -9 -176 51 hhcurveto
          25 -327 hlineto
          -13 171 -2 14 vvcurveto
          320 vlineto
          5 4 5 4 5 3 rrcurveto
          hintmask 01111000
          5 9 10 6 11 hhcurveto
          24 9 -15 -35 hvcurveto
          endchar
        </CharString>
        <CharString name="minus">
          46 48 callsubr
          492 190 -8 callsubr
        </CharString>
        <CharString name="mu">
          15 -10 176 hstem
          40 172 86 170 vstem
          468 494 -85 callsubr
          -653 vlineto
          -31 172 -2 33 vvcurveto
          168 vlineto
          60 -18 57 25 31 28 1 1 rcurveline
          -19 11 26 -36 62 62 callsubr
        </CharString>
        <CharString name="multiply">
          53 109 235 rmoveto
          -28 -28 82 -82 28 28 111 111 rcurveline
          113 -113 28 -28 81 83 -27 27 rlinecurve
          -113 113 114 114 28 28 -82 82 -28 -28 rlinecurve
          -114 -114 -112 113 -29 27 -81 -82 28 -27 rlinecurve
          112 -113 rlineto
          endchar
        </CharString>
        <CharString name="n">
          -6 43 callsubr
          hstemhm
          82 172 86 171 hintmask 01110000
          82 10 -40 callsubr
          hintmask 10110000
          64 callsubr
        </CharString>
        <CharString name="nine">
          8 -10 169 85 142 144 180 hstem
          40 176 125 189 vstem
          228 159 rmoveto
          -19 -24 3 4 -23 hvcurveto
          -40 8 rlineto
          -20 -18 -94 -33 -47 98 -10 72 185 91 148 256 211 -93 105 -159 -140 -98 -93 -157 -129 76 -87 143 25 30 7 7 25 hvcurveto
          -72 -7 -49 -27 -55 hhcurveto
          -12 297 rmoveto
          43 23 31 43 45 14 -41 -89 vhcurveto
          -9 -13 -22 -5 -19 hhcurveto
          -39 -32 27 43 hvcurveto
          endchar
        </CharString>
        <CharString name="ntilde">
          -6 43 callsubr
          44 31 callsubr
          82 172 86 171 hintmask 10011100
          136 60 callsubr
          hintmask 10101100
          -89 callsubr
          hintmask 01011100
          -79 callsubr
          -54 -543 -40 callsubr
          hintmask 10101100
          64 callsubr
        </CharString>
        <CharString name="numbersign">
          276 183 107 122 108 hstem
          596 300 rmoveto
          35 104 rlineto
          111 hlineto
          40 -3 116 -39 hhcurveto
          -69 hlineto
          37 109 14 36 -113 37 -13 -37 rlinecurve
          -49 -146 rlineto
          -116 hlineto
          38 112 13 35 -111 38 -14 -38 rlinecurve
          -50 -147 rlineto
          -148 68 callsubr
          114 hlineto
          -35 -104 rlineto
          -110 68 callsubr
          75 hlineto
          -42 -126 -16 -37 112 -42 13 37 rlinecurve
          57 168 rlineto
          116 hlineto
          -43 -128 -16 -38 112 -40 13 37 rlinecurve
          57 169 150 1 rlineto
          40 -3 116 -39 hhcurveto
          -320 112 rmoveto
          136 hlineto
          -41 -122 rlineto
          -136 hlineto
          endchar
        </CharString>
        <CharString name="o">
          -83 callsubr
          endchar
        </CharString>
        <CharString name="oacute">
          -83 callsubr
          152 354 -75 callsubr
        </CharString>
        <CharString name="ocircumflex">
          -2 callsubr
          199 -20 -91 callsubr
          172 274 -106 callsubr
          endchar
        </CharString>
        <CharString name="odieresis">
          -2 callsubr
          hstemhm
          26 177 -139 14 callsubr
          -119 173 hintmask 11101000
          64 51 callsubr
          hintmask 11011000
          5 callsubr
          hintmask 11100100
          -268 -441 -33 callsubr
        </CharString>
        <CharString name="oe">
          217 -10 130 -130 169 14 109 61 167 -152 152 hstemhm
          30 callsubr
          185 87 168 hintmask 10110111
          26 250 rmoveto
          -165 91 -95 140 59 49 16 32 38 vhcurveto
          -32 41 50 -16 53 hhcurveto
          76 47 13 24 41 hvcurveto
          -78 callsubr
          -25 callsubr
          -56 -48 -18 -31 -39 hvcurveto
          33 -40 -49 16 -59 hhcurveto
          3 callsubr
          hvcurveto
          -16 callsubr
          24 33 -17 -76 vhcurveto
          hintmask 01101111
          -74 -31 -17 -26 -27 -29 18 74 vhcurveto
          385 65 -64 callsubr
        </CharString>
        <CharString name="ograve">
          -83 callsubr
          113 279 -68 callsubr
        </CharString>
        <CharString name="one">
          -151 509 191 hstem
          153 203 vstem
          356 674 rmoveto
          15 -15 11 -23 vhcurveto
          -274 hlineto
          -24 -5 -65 -30 -28 1 -68 29 hvcurveto
          108 1 rlineto
          -493 vlineto
          -24 203 3 21 vvcurveto
          endchar
        </CharString>
        <CharString name="onehalf">
          291 0 98 142 103 251 106 hstem
          150 123 373 122 vstem
          273 688 -42 callsubr
          479 -368 -44 callsubr
          -390 49 -19 callsubr
        </CharString>
        <CharString name="onequarter">
          282 75 74 445 106 hstemhm
          148 123 344 113 -94 94 hintmask 11110000
          -31 callsubr
          hintmask 11101000
          57 102 rlineto
          -102 vlineto
          -363 539 -42 callsubr
          -99 -319 -19 callsubr
        </CharString>
        <CharString name="onesuperior">
          -274 589 106 hstem
          108 123 vstem
          231 683 -42 callsubr
          endchar
        </CharString>
        <CharString name="ordfeminine">
          -51 353 89 -89 214 45 87 hstemhm
          80 115 52 122 -122 169 hintmask 01111000
          369 471 rmoveto
          105 vlineto
          77 -29 46 -87 -39 -48 -3 -15 -31 vhcurveto
          -11 -3 0 -9 -8 vvcurveto
          -13 4 -15 5 -12 vhcurveto
          3 -7 3 -7 4 -6 20 5 rcurveline
          3 12 16 3 17 hhcurveto
          31 8 -4 -23 hvcurveto
          -18 -47 vlineto
          -80 -40 -33 -65 -61 48 -55 67 51 31 11 27 23 hvcurveto
          4 -7 5 -7 7 -5 rrcurveto
          -11 11 18 -8 28 hhcurveto
          hintmask 10110100
          29 14 39 33 25 -8 21 -15 hvcurveto
          hintmask 10111000
          -198 hmoveto
          21 11 11 21 vhcurveto
          20 -52 hlineto
          -7 -9 -4 -2 -11 hhcurveto
          -15 -13 9 20 hvcurveto
          endchar
        </CharString>
        <CharString name="ordmasculine">
          -191 353 123 102 121 hstem
          40 113 80 112 6 callsubr
          113 1 rmoveto
          40 21 11 19 17 23 -11 -40 -41 -23 -10 -17 -19 -21 10 41 vhcurveto
          endchar
        </CharString>
        <CharString name="oslash">
          -44 -10 107 308 105 hstem
          26 128 208 125 vstem
          26 250 rmoveto
          -84 23 -65 41 -45 vhcurveto
          -17 -31 -21 -34 88 -52 19 35 rlinecurve
          16 28 rlineto
          -8 25 27 -4 30 hhcurveto
          139 91 95 165 85 -24 67 -43 44 hvcurveto
          31 56 19 35 -86 48 -18 -34 rlinecurve
          -30 -53 rlineto
          8 -24 -26 4 -29 hhcurveto
          3 callsubr
          hvcurveto
          336 1 rmoveto
          -124 -62 -30 -43 -10 -9 1 3 -9 vhcurveto
          123 223 rlineto
          7 -20 3 -24 -29 vvcurveto
          -208 hmoveto
          124 60 30 43 9 9 -1 -3 8 vhcurveto
          -122 -218 rlineto
          -5 18 -2 23 27 vvcurveto
          endchar
        </CharString>
        <CharString name="otilde">
          -2 callsubr
          44 31 callsubr
          30 callsubr
          173 hintmask 11011100
          106 553 -39 callsubr
          -80 -303 -33 callsubr
        </CharString>
        <CharString name="p">
          -2 17 -21 337 176 hstem
          89 171 93 176 vstem
          89 333 rmoveto
          -515 vlineto
          -11 171 3 8 vvcurveto
          182 vlineto
          16 -2 rlineto
          -1 11 17 -1 27 hhcurveto
          109 89 90 176 179 -93 68 -105 -64 -38 -25 -27 -35 hvcurveto
          1 -31 51 -66 vhcurveto
          -97 6 -176 49 hhcurveto
          298 -84 rmoveto
          -112 -35 1 -50 8 vhcurveto
          177 vlineto
          29 19 56 4 -97 vvcurveto
          endchar
        </CharString>
        <CharString name="paragraph">
          223 540 160 hstem
          185 158 81 200 vstem
          185 21 rmoveto
          -37 158 2 35 vvcurveto
          489 vlineto
          29 81 0 -29 vvcurveto
          -489 vlineto
          -38 200 -2 40 vvcurveto
          519 50 vlineto
          45 -2 160 -43 hhcurveto
          -429 hlineto
          -141 -74 -82 -125 -105 50 -95 105 hvcurveto
          endchar
        </CharString>
        <CharString name="parenleft">
          -127 95 151 vstem
          190 676 rmoveto
          -55 -101 -40 -109 -137 vvcurveto
          -149 38 -117 53 -107 vhcurveto
          35 -72 122 87 1 1 -56 96 -41 110 -1 133 rrcurveto
          132 41 100 54 118 vhcurveto
          1 1 -124 66 -28 -52 rrcurveto
          endchar
        </CharString>
        <CharString name="parenright">
          -135 193 151 vstem
          249 676 rmoveto
          -28 53 -123 -67 -1 vvcurveto
          54 -118 41 -100 -132 vvcurveto
          -1 -133 -41 -110 -56 -96 1 -1 122 -87 35 72 rrcurveto
          53 107 38 117 149 vvcurveto
          137 -40 109 -55 101 vhcurveto
          endchar
        </CharString>
        <CharString name="period">
          -328 20 189 vstem
          20 -4 -63 callsubr
          endchar
        </CharString>
        <CharString name="periodcentered">
          -248 58 189 vstem
          58 216 -63 callsubr
          endchar
        </CharString>
        <CharString name="perthousand">
          449 11 callsubr
          106 94 105 hintmask 1101111110000000
          953 184 rmoveto
          133 -69 60 -83 -40 -35 -11 -27 -27 vhcurveto
          27 -27 -34 11 -37 hhcurveto
          -88 -65 -60 -133 -136 69 -56 86 36 34 11 27 27 hvcurveto
          -27 27 36 -11 40 hhcurveto
          81 69 61 131 hvcurveto
          -850 -118 24 callsubr
          -238 -184 rmoveto
          26 callsubr
          vhcurveto
          hintmask 1011111110000000
          -48 callsubr
          hintmask 1101111110000000
          366 -269 rmoveto
          24 20 -18 -41 3 hvcurveto
          -7 vlineto
          -43 -1 -19 -19 -27 hhcurveto
          8 callsubr
          hvcurveto
          247 -65 -34 callsubr
          endchar
        </CharString>
        <CharString name="plus">
          45 290 61 callsubr
          574 rmoveto
          9 callsubr
          -168 -170 vlineto
          -54 callsubr
          170 -171 hlineto
          20 callsubr
          171 169 vlineto
          -49 callsubr
          -169 hlineto
          endchar
        </CharString>
        <CharString name="plusminus">
          38 97 116 147 61 callsubr
          614 rmoveto
          9 callsubr
          -138 -140 vlineto
          -54 callsubr
          140 -101 hlineto
          -12 116 2 10 vvcurveto
          101 139 vlineto
          -49 callsubr
          -139 hlineto
          -256 -263 rmoveto
          -54 callsubr
          395 hlineto
          -49 callsubr
          endchar
        </CharString>
        <CharString name="q">
          -46 17 -21 514 -20 hstem
          26 179 89 172 vstem
          226 -4 rmoveto
          27 26 5 3 15 hvcurveto
          -184 vlineto
          -18 172 1 17 vvcurveto
          637 vlineto
          32 -47 -60 21 -83 hhcurveto
          -155 -95 -90 -169 -148 76 -107 124 hvcurveto
          -21 253 rmoveto
          93 37 15 52 -13 vhcurveto
          -186 vlineto
          -38 -14 -51 5 100 vvcurveto
          endchar
        </CharString>
        <CharString name="question">
          27 539 172 hstemhm
          160 171 -33 33 -33 212 hintmask 10100000
          331 251 rmoveto
          hintmask 10010000
          71 179 73 137 vvcurveto
          107 -70 72 -154 -100 -105 -38 -34 -10 vhcurveto
          -24 -56 78 -83 1 vvcurveto
          15 23 46 23 47 hhcurveto
          43 14 -18 -32 hvcurveto
          hintmask 10100000
          -82 -150 -75 -77 vvcurveto
          -38 vlineto
          -29 183 7 26 vvcurveto
          hintmask 11000000
          -171 -226 rmoveto
          -7 165 1 7 vvcurveto
          159 vlineto
          7 -165 0 -10 vvcurveto
          endchar
        </CharString>
        <CharString name="questiondown">
          27 -210 172 hstemhm
          65 212 -27 165 -165 177 hintmask 10100000
          415 506 rmoveto
          7 -165 -1 -7 vvcurveto
          -159 vlineto
          -7 165 0 10 vvcurveto
          -171 -99 rmoveto
          hintmask 11000000
          -71 -179 -73 -137 vvcurveto
          -107 70 -72 154 102 100 39 33 13 vhcurveto
          24 56 -78 83 -1 vvcurveto
          -15 -23 -46 -23 -47 hhcurveto
          -43 -14 18 32 hvcurveto
          hintmask 10010000
          82 150 75 77 vvcurveto
          38 vlineto
          29 -183 -7 -26 vvcurveto
          endchar
        </CharString>
        <CharString name="quotedbl">
          -97 208 47 vstem
          208 663 rmoveto
          39 -143 0 -39 vvcurveto
          30 -211 rlineto
          47 callsubr
          190 211 rmoveto
          39 -143 0 -39 vvcurveto
          -211 vlineto
          47 callsubr
          endchar
        </CharString>
        <CharString name="quotedblbase">
          94 118 165 105 -43 callsubr
          209 -124 -69 callsubr
          endchar
        </CharString>
        <CharString name="quotedblleft">
          7 89 469 -5 callsubr
          230 -211 -5 callsubr
          endchar
        </CharString>
        <CharString name="quotedblright">
          -27 243 680 32 callsubr
          286 211 32 callsubr
          endchar
        </CharString>
        <CharString name="quoteleft">
          -216 89 469 -5 callsubr
          endchar
        </CharString>
        <CharString name="quoteright">
          -243 243 681 25 callsubr
          47 callsubr
          endchar
        </CharString>
        <CharString name="quotesinglbase">
          -189 118 -43 callsubr
          endchar
        </CharString>
        <CharString name="quotesingle">
          -256 223 663 rmoveto
          39 -153 0 -39 vvcurveto
          20 -211 rlineto
          47 callsubr
          endchar
        </CharString>
        <CharString name="r">
          -161 340 170 hstemhm
          20 244 -182 182 hintmask 11000000
          82 2 rmoveto
          -11 182 2 8 vvcurveto
          279 vlineto
          45 15 15 23 vhcurveto
          23 17 -15 8 hhcurveto
          1 2 2 3 2 hvcurveto
          21 39 22 83 -10 28 rrcurveto
          23 -9 -32 7 -29 hhcurveto
          -48 -52 -34 -56 -29 hvcurveto
          44 -43 46 -62 -52 -12 -59 -49 -36 12 -32 23 vhcurveto
          hintmask 10100000
          27 hlineto
          endchar
        </CharString>
        <CharString name="registered">
          144 195 58 427 53 hstem
          84 58 102 97 41 93 94 53 vstem
          -53 callsubr
          333 62 rmoveto
          56 -33 30 -80 vhcurveto
          -103 hlineto
          -12 -3 -6 -9 hvcurveto
          -269 vlineto
          -16 97 0 16 vvcurveto
          94 8 vlineto
          30 -67 37 -83 79 67 8 19 rlinecurve
          -70 88 rlineto
          25 17 17 30 33 vvcurveto
          -134 14 rmoveto
          8 hlineto
          24 9 -8 -19 -27 -18 -6 -21 hvcurveto
          -2 hlineto
          endchar
        </CharString>
        <CharString name="ring">
          -161 529 65 callsubr
          hstem
          112 65 callsubr
          vstem
          112 619 -60 callsubr
          endchar
        </CharString>
        <CharString name="s">
          -72 callsubr
          endchar
        </CharString>
        <CharString name="scaron">
          -72 callsubr
          34 528 -86 callsubr
        </CharString>
        <CharString name="section">
          60 -209 166 588 165 hstemhm
          59 176 -176 217 48 230 -171 171 hintmask 11011000
          91 24 rmoveto
          -24 -16 -27 -57 -48 vvcurveto
          -85 130 -27 120 vhcurveto
          191 3 73 90 116 vvcurveto
          49 -41 51 -37 24 vhcurveto
          55 35 23 50 57 146 -278 22 78 vvcurveto
          19 9 14 43 51 55 -15 -12 40 vhcurveto
          10 5 48 82 54 vvcurveto
          32 -3 -115 19 -96 hhcurveto
          -159 -100 -82 -121 hvcurveto
          3 -68 32 -40 43 -27 rrcurveto
          -52 -35 -26 -48 -61 -175 265 -11 -55 vvcurveto
          -16 -13 -14 -31 -39 -45 16 17 -39 vhcurveto
          -22 10 -22 11 -22 13 rrcurveto
          hintmask 11100100
          292 207 rmoveto
          -28 -9 -18 -41 -35 -63 38 37 23 10 20 33 39 66 -41 -31 vhcurveto
          endchar
        </CharString>
        <CharString name="semicolon">
          -280 58 189 -169 169 vstem
          15 -67 -69 callsubr
          -18 260 -63 callsubr
          endchar
        </CharString>
        <CharString name="seven">
          -57 18 -21 506 192 1 -20 hstemhm
          hintmask 10100000
          485 608 rmoveto
          -4 17 -6 14 -7 13 rrcurveto
          23 -13 -20 21 -32 hhcurveto
          hintmask 11000000
          -350 -1 rlineto
          -24 -5 -65 -30 -28 1 -69 29 hvcurveto
          203 hlineto
          -167 -490 rlineto
          -17 55 1 61 41 61 1 15 5 vhcurveto
          endchar
        </CharString>
        <CharString name="six">
          18 -10 157 151 127 105 180 hstem
          362 173 vstem
          334 530 rmoveto
          29 23 -6 -5 16 hvcurveto
          9 -3 9 -4 7 -4 10 15 9 15 8 17 rrcurveto
          15 27 13 36 31 vvcurveto
          51 -86 10 -64 -173 -124 -148 -247 -209 93 -116 159 148 100 91 148 115 -56 81 -140 -44 -36 -6 -9 -31 vhcurveto
          101 11 51 19 44 hhcurveto
          28 -302 rmoveto
          -54 -23 -27 -46 -58 -13 77 60 5 vhcurveto
          9 13 22 5 29 hhcurveto
          45 26 -30 -40 hvcurveto
          endchar
        </CharString>
        <CharString name="slash">
          16 3 -36 rmoveto
          -21 -34 100 -58 21 33 467 811 63 callsubr
        </CharString>
        <CharString name="space">
          -369 endchar
        </CharString>
        <CharString name="sterling">
          -67 0 171 128 84 141 186 hstem
          52 182 vstem
          389 299 rmoveto
          27 0 84 -27 hhcurveto
          -110 hlineto
          -23 21 -22 28 31 vvcurveto
          35 22 26 73 43 22 -8 -13 25 vhcurveto
          17 14 24 86 39 vvcurveto
          48 -84 20 -75 -143 -106 -42 -129 -73 35 -45 24 -38 vhcurveto
          -60 hlineto
          -27 -2 -84 30 hhcurveto
          85 hlineto
          -8 -83 -51 -55 -31 -31 -29 -29 46 -85 27 -16 rrcurveto
          342 hlineto
          38 -1 171 -38 hhcurveto
          -172 hlineto
          23 35 10 42 4 51 rrcurveto
          endchar
        </CharString>
        <CharString name="t">
          -189 360 140 hstemhm
          91 169 -169 184 hintmask 10100000
          91 361 rmoveto
          -354 vlineto
          -15 184 -2 16 vvcurveto
          354 71 vlineto
          19 6 140 -25 hhcurveto
          -85 hlineto
          hintmask 11000000
          4 -1 22 23 vvcurveto
          43 vlineto
          20 -169 2 -26 vvcurveto
          -88 -53 vlineto
          -23 -3 -139 28 hhcurveto
          endchar
        </CharString>
        <CharString name="thorn">
          71 -170 -21 191 145 210 155 199 -20 hstem
          92 173 89 182 vstem
          326 52 callsubr
          9 -43 4 -44 -43 -43 -5 -7 vhcurveto
          -862 vlineto
          -17 45 -9 44 43 40 7 19 vhcurveto
          167 vlineto
          -1 11 12 -1 11 hhcurveto
          145 93 92 177 57 callsubr
          -81 -32 -25 -29 -11 -8 3 4 -9 vhcurveto
          191 vlineto
          8 11 12 4 12 hhcurveto
          28 26 -24 -80 hvcurveto
          endchar
        </CharString>
        <CharString name="three">
          -29 -10 183 108 136 97 196 hstemhm
          267 199 -179 201 hintmask 11101000
          20 66 rmoveto
          -43 108 -33 101 173 86 91 121 96 -54 48 -72 29 vhcurveto
          hintmask 11110000
          64 40 40 63 83 vvcurveto
          88 -66 61 -151 -101 -109 -29 -59 -49 45 -81 0 vhcurveto
          13 31 42 9 35 hhcurveto
          43 32 -11 -31 -36 -56 -19 -30 hvcurveto
          -29 -1 rlineto
          -20 -1 -8 -23 -24 vvcurveto
          -36 17 -51 16 vhcurveto
          36 hlineto
          hintmask 11101000
          56 -3 38 -5 -36 vvcurveto
          -44 -38 -20 -51 -39 -48 14 21 -35 vhcurveto
          -2 -54 -79 -63 hvcurveto
          endchar
        </CharString>
        <CharString name="threequarters">
          311 75 74 213 89 57 46 48 98 hstemhm
          78 231 -124 124 306 113 -94 94 hintmask 11111010
          -31 callsubr
          hintmask 11111001
          57 102 rlineto
          -102 vlineto
          -565 249 -32 callsubr
          hintmask 11110110
          -29 callsubr
          103 -349 -19 callsubr
        </CharString>
        <CharString name="threesuperior">
          -252 362 89 57 46 48 98 hstemhm
          38 231 -124 124 hintmask 11110000
          29 398 -32 callsubr
          hintmask 11101000
          -29 callsubr
          endchar
        </CharString>
        <CharString name="tilde">
          -117 554 31 callsubr
          hintmask 01000000
          74 553 -45 callsubr
        </CharString>
        <CharString name="trademark">
          246 588 111 hstem
          120 119 94 111 179 114 vstem
          239 588 rmoveto
          46 hlineto
          27 0 111 -27 hhcurveto
          -213 hlineto
          -24 -2 -111 26 hhcurveto
          48 -238 hlineto
          -25 119 6 19 vvcurveto
          388 2 rmoveto
          3 -26 115 5 22 vvcurveto
          -16 327 -8 26 -133 9 -14 -33 rlinecurve
          -40 -151 -46 156 -8 19 -136 9 -3 -35 rlinecurve
          -16 -329 rlineto
          -26 116 5 21 vvcurveto
          7 161 42 -165 5 -19 78 3 5 16 rlinecurve
          41 163 rlineto
          endchar
        </CharString>
        <CharString name="two">
          -32 0 181 338 192 hstem
          275 212 vstem
          433 hmoveto
          41 20 43 52 21 0 16 -5 53 hvcurveto
          -202 -8 rlineto
          91 75 109 132 128 vvcurveto
          127 -69 72 -155 -100 -105 -38 -34 -10 vhcurveto
          -24 -64 78 -95 1 vvcurveto
          16 21 49 22 36 hhcurveto
          53 14 -21 -35 -68 -128 -147 -96 -99 hvcurveto
          -11 -11 8 -138 53 hhcurveto
          endchar
        </CharString>
        <CharString name="twosuperior">
          -205 359 98 142 103 hstem
          168 122 vstem
          274 359 -44 callsubr
          endchar
        </CharString>
        <CharString name="u">
          -62 callsubr
          endchar
        </CharString>
        <CharString name="uacute">
          -62 callsubr
          -81 439 -75 callsubr
        </CharString>
        <CharString name="ucircumflex">
          7 callsubr
          543 -20 hstemhm
          40 172 86 170 hintmask 10111000
          377 -76 callsubr
          216 -104 -96 callsubr
          hintmask 01111000
          62 callsubr
        </CharString>
        <CharString name="udieresis">
          -4 callsubr
          -140 140 86 143 -143 170 hintmask 10011000
          72 -74 callsubr
          hintmask 10100100
          166 -197 -96 callsubr
          hintmask 01100100
          62 callsubr
        </CharString>
        <CharString name="ugrave">
          -6 callsubr
          348 -20 callsubr
          291 -111 -82 callsubr
          endchar
        </CharString>
        <CharString name="underscore">
          79 -150 27 callsubr
          552 -150 -14 callsubr
          -475 -30 callsubr
        </CharString>
        <CharString name="uni0025">
          241 11 callsubr
          105 hintmask 10111111
          340 518 rmoveto
          -23 callsubr
          518 -335 rmoveto
          hintmask 11011111
          -23 callsubr
          -545 -119 24 callsubr
          endchar
        </CharString>
        <CharString name="uni00AD">
          -103 48 callsubr
          372 36 callsubr
          -295 -30 callsubr
        </CharString>
        <CharString name="v">
          -36 135 12 rmoveto
          11 -22 220 5 8 12 141 489 rcurveline
          3 10 -192 1 -4 -12 -54 -335 rcurveline
          -72 340 rlineto
          6 -194 3 4 -12 vhcurveto
          endchar
        </CharString>
        <CharString name="w">
          195 421 10 rmoveto
          4 -23 214 3 4 20 98 486 rcurveline
          2 9 -178 2 -1 -12 -36 -327 rcurveline
          -82 330 -3 9 -127 -2 -2 -7 rlinecurve
          -83 -334 -46 338 rlineto
          5 -177 0 3 -7 vhcurveto
          89 -487 4 -25 221 4 4 18 rlinecurve
          51 224 rlineto
          endchar
        </CharString>
        <CharString name="x">
          0 227 491 rmoveto
          -9 17 -218 1 16 -24 117 -245 rcurveline
          -113 -230 -9 -13 199 -7 4 13 rlinecurve
          62 174 54 -167 8 -24 212 17 -9 9 rlinecurve
          -122 229 122 253 5 14 -196 -1 -5 -10 rlinecurve
          -65 -168 rlineto
          endchar
        </CharString>
        <CharString name="y">
          -20 -12 callsubr
          8 17 -193 -3 -4 -9 rlinecurve
          -69 -238 -72 236 41 callsubr
          endchar
        </CharString>
        <CharString name="yacute">
          -20 -22 callsubr
          356 112 -75 callsubr
        </CharString>
        <CharString name="ydieresis">
          -33 77 14 callsubr
          vstem
          -22 callsubr
          66 58 -58 callsubr
        </CharString>
        <CharString name="yen">
          102 213 64 61 74 hstem
          214 219 vstem
          567 213 rmoveto
          35 -4 64 -31 hhcurveto
          -134 61 134 hlineto
          35 -4 74 -31 hhcurveto
          -99 hlineto
          181 286 5 9 -205 23 -28 -53 rlinecurve
          -90 -157 -91 157 -32 52 -216 -21 8 -12 rlinecurve
          182 -284 rlineto
          -91 hlineto
          -31 0 -74 31 hhcurveto
          123 -61 -123 hlineto
          -31 0 -64 31 hhcurveto
          123 -196 hlineto
          46 callsubr
          196 vlineto
          endchar
        </CharString>
        <CharString name="z">
          -41 callsubr
          endchar
        </CharString>
        <CharString name="zcaron">
          -41 callsubr
          -115 362 -86 callsubr
        </CharString>
        <CharString name="zero">
          82 29 callsubr
          hstem
          35 193 183 193 vstem
          35 349 rmoveto
          -244 128 -115 152 161 128 103 256 251 -122 109 -164 -153 -130 -109 -251 vhcurveto
          193 hmoveto
          113 43 55 48 49 43 -53 -115 -108 -40 -56 -52 -52 -39 56 108 vhcurveto
          endchar
        </CharString>
</ttFont>
